#N canvas 0 39 1710 968 10;
#X obj 279 -679 cnv 19 1420 880 empty empty empty 20 12 0 12 #000000 #404040 0;
#X obj 283 -673 cnv 19 705 870 empty empty empty 20 12 0 12 #7c7c7c #404040 0;
#X obj 991 -673 cnv 19 705 870 empty empty empty 20 12 0 12 #7c7c7c #404040 0;
#X obj 286 -31 cnv 19 700 190 empty empty empty 20 12 0 12 #c6ffc7 #404040 0;
#X obj 287 -447 cnv 19 700 200 empty empty empty 20 12 0 12 #ffc7c6 #404040 0;
#X obj 287 -242 cnv 19 700 50 empty empty empty 20 12 0 12 #feffc6 #404040 0;
#X obj 375 -348 tgl 20 0 pulse empty pulse -8 -10 0 10 #c6ffc7 #000000 #000000 0 1;
#X obj 425 -428 tgl 20 0 phrase1 empty phrase1 -8 -10 0 10 #c6ffc7 #000000 #000000 0 1;
#X obj 425 -389 tgl 20 0 phrase2 empty phrase2 -8 -10 0 10 #c6ffc7 #000000 #000000 0 1;
#X obj 994 -552 cnv 19 700 630 empty empty empty 20 12 0 12 #202020 #404040 0;
#X obj 1000 -545 cnv 19 340 150 empty empty empty 20 12 0 12 #dfdfdf #404040 0;
#X obj 1347 -545 cnv 19 340 150 empty empty empty 20 12 0 12 #dfdfdf #404040 0;
#X obj 1000 -390 cnv 19 340 150 empty empty empty 20 12 0 12 #dfdfdf #404040 0;
#X obj 1347 -390 cnv 19 340 150 empty empty empty 20 12 0 12 #dfdfdf #404040 0;
#X obj 1000 -236 cnv 19 340 150 empty empty empty 20 12 0 12 #dfdfdf #404040 0;
#X obj 1347 -236 cnv 19 340 150 empty empty empty 20 12 0 12 #dfdfdf #404040 0;
#X obj 286 164 cnv 19 700 30 empty empty empty 20 12 0 12 #dfdfdf #404040 0;
#X obj 1014 -511 cnv 19 310 90 empty empty empty 20 12 0 12 #000000 #404040 0;
#X obj 1016 -509 cnv 19 305 85 empty empty empty 20 12 0 12 #ffffff #404040 0;
#X obj 1362 -510 cnv 19 310 90 empty empty empty 20 12 0 12 #000000 #404040 0;
#X obj 1364 -508 cnv 19 305 85 empty empty empty 20 12 0 12 #ffffff #404040 0;
#X obj 1016 -351 cnv 19 310 90 empty empty empty 20 12 0 12 #000000 #404040 0;
#X obj 1018 -349 cnv 19 305 85 empty empty empty 20 12 0 12 #ffffff #404040 0;
#X obj 1016 -205 cnv 19 310 90 empty empty empty 20 12 0 12 #000000 #404040 0;
#X obj 1018 -203 cnv 19 305 85 empty empty empty 20 12 0 12 #ffffff #404040 0;
#X obj 1362 -350 cnv 19 310 90 empty empty empty 20 12 0 12 #000000 #404040 0;
#X obj 1364 -348 cnv 19 305 85 empty empty empty 20 12 0 12 #ffffff #404040 0;
#X obj 1360 -205 cnv 19 310 90 empty empty empty 20 12 0 12 #000000 #404040 0;
#X obj 1362 -203 cnv 19 305 85 empty empty empty 20 12 0 12 #ffffff #404040 0;
#X obj 994 -668 cnv 19 700 110 empty empty empty 20 12 0 12 #202020 #404040 0;
#X obj 998 -664 cnv 19 690 100 empty empty empty 20 12 0 12 #ffffff #404040 0;
#X obj 1006 -653 cnv 19 320 80 empty empty empty 20 12 0 12 #000000 #404040 0;
#X obj 1010 -648 cnv 19 310 70 empty empty empty 20 12 0 12 #ffffff #404040 0;
#X obj 994 83 cnv 19 700 110 empty empty empty 20 12 0 12 #202020 #404040 0;
#X obj 998 87 cnv 19 690 100 empty empty empty 20 12 0 12 #ffffff #404040 0;
#X obj 291 -672 cnv 19 700 215 empty empty empty 20 12 0 12 #ffffff #404040 0;
#X obj 287 -187 cnv 19 700 150 empty empty empty 20 12 0 12 #c6feff #404040 0;
#X obj 580 62 tgl 25 0 1inferior empty on/off 0 -10 0 12 #ffffff #000000 #000000 0 1;
#X obj 710 62 tgl 25 0 1superior empty on/off 0 -10 0 12 #ffffff #000000 #000000 0 1;
#X obj 860 62 tgl 25 0 2superior empty on/off 0 -10 0 12 #ffffff #000000 #000000 0 1;
#X obj 440 62 tgl 25 0 2inferior empty on/off 0 -10 0 12 #ffffff #000000 #000000 0 1;
#X obj 424 -348 tgl 20 0 phrase3 empty phrase3 -8 -10 0 10 #c6ffc7 #000000 #000000 0 1;
#X obj 424 -308 tgl 20 0 phrase4 empty phrase4 -8 -10 0 10 #c6ffc7 #000000 #000000 0 1;
#X obj 1430 -618 bng 25 250 50 0 gemplay empty PLAY 0 -10 0 12 #ff0400 #000000 #ff0400;
#X obj 1513 -618 bng 25 250 50 0 gemstop empty STOP 0 -10 0 12 #0400ff #000000 #0400ff;
#N canvas 0 0 1904 968 gem 0;
#X msg 330 100 destroy;
#X obj 260 130 gemwin;
#X msg 260 100 create \, 1;
#X obj 860 240 gemhead;
#X obj 1020 260 part_head;
#X obj 910 350 part_source;
#X floatatom 1190 100 5 0 5 0 - - - 0;
#X msg 1190 120 speed \$1;
#X floatatom 1490 510 5 0 0 0 - - - 0;
#X obj 1050 450 part_killold;
#X floatatom 140 440 5 0 0 0 - - - 0;
#X obj 1050 650 part_orbitpoint;
#X floatatom 1160 490 5 0 0 0 - - - 0;
#X text 1150 470 gravity;
#X obj 1050 690 part_color;
#X obj 1050 720 part_render;
#X floatatom 1120 870 5 0 0 0 - - - 0;
#X msg 950 870 draw line;
#X msg 950 890 draw fill;
#X msg 950 910 draw point;
#X obj 1040 490 part_velocity;
#X floatatom 450 710 5 0 0 0 - - - 0;
#X msg 410 650 draw line;
#X msg 410 670 draw fill;
#X msg 410 690 draw point;
#X text 980 50 you can set the speed of the particle-emission with the speed-message. 0 to 1 and at most 5 are recommended, f 33;
#X obj 360 730 circle 0.03;
#X obj 1050 890 square 0.1;
#X obj 780 80 separator;
#X obj 780 120 world_light;
#X msg 310 130 lighting 1;
#X obj 1060 850 alpha;
#X msg 380 130 4, f 2;
#X obj 780 100 rotateXYZ 50 15 0;
#X obj 400 130 send a;
#X obj 1110 830 receive a;
#X msg 1280 50 1.5;
#X msg 1330 50 0.8;
#X msg 1380 50 0.03;
#X msg 1470 50 0.06;
#X obj 1610 190 count 2;
#X obj 1610 220 select 1;
#X obj 1610 250 random 7;
#X obj 1610 280 select 0 1 2 3 4 5 6 7;
#X obj 1610 320 bng 15 250 50 0 empty empty empty 17 7 0 10 #fcfcfc #000000 #000000;
#X obj 1630 320 bng 15 250 50 0 empty empty empty 17 7 0 10 #fcfcfc #000000 #000000;
#X obj 1650 320 bng 15 250 50 0 empty empty empty 17 7 0 10 #fcfcfc #000000 #000000;
#X obj 1670 320 bng 15 250 50 0 empty empty empty 17 7 0 10 #fcfcfc #000000 #000000;
#X obj 1690 320 bng 15 250 50 0 empty empty empty 17 7 0 10 #fcfcfc #000000 #000000;
#X obj 1710 320 bng 15 250 50 0 empty empty empty 17 7 0 10 #fcfcfc #000000 #000000;
#X obj 1730 320 bng 15 250 50 0 empty empty empty 17 7 0 10 #fcfcfc #000000 #000000;
#X obj 1750 320 bng 15 250 50 0 empty empty empty 17 7 0 10 #fcfcfc #000000 #000000;
#X obj 1610 70 loadbang;
#X obj 1610 150 tgl 15 0 empty empty empty 17 7 0 10 #fcfcfc #000000 #000000 0 1;
#X obj 220 60 r gemplay;
#X obj 330 60 r gemstop;
#X obj 1700 610 tgl 15 0 empty empty empty 17 7 0 10 #fcfcfc #000000 #000000 0 1;
#X obj 1700 580 loadbang;
#X obj 1710 770 sel 0 1 2 3 4 5 6;
#X msg 1640 820 1;
#X msg 1670 820 3;
#X msg 1700 820 6;
#X msg 1720 820 9;
#X msg 1750 820 12;
#X msg 1780 820 15;
#X msg 1810 820 18;
#X obj 1702 733 random 6;
#X obj 790 710 metro 2000;
#X obj 792 693 tgl 15 0 empty empty empty 17 7 0 10 #fcfcfc #000000 #000000 0 1;
#X obj 790 670 loadbang;
#X obj 770 760 sel 0 1 2 3 4 5;
#X obj 810 740 random 6;
#X msg 1370 1000 1 0 1, f 2;
#X obj 1500 440 r decayamount;
#X floatatom 1500 470 5 0 0 0 - - - 0;
#X text 1420 380 decay amount of the synth controls the number of particles that are emitted at each rendering-frame;
#X msg 1430 50 1;
#X text 840 460 kill particles which are older than the kill time. The default time is 10 Make the number longer for particles to live longer and shorter to remove them quicker., f 24;
#X obj 1700 680 metro 6000;
#X obj 1610 110 metro 600;
#X msg 240 520 0 0 0;
#X msg 240 540 0 0 1;
#X msg 240 560 0 1 1;
#X msg 240 580 1 0 0;
#X obj 130 760 bng 15 250 50 0 empty 12 empty 17 7 0 10 #fcfcfc #000000 #000000;
#X obj 130 780 bng 15 250 50 0 empty 13 empty 17 7 0 10 #fcfcfc #000000 #000000;
#X obj 130 803 bng 15 250 50 0 empty 14 empty 17 7 0 10 #fcfcfc #000000 #000000;
#X obj 130 830 bng 15 250 50 0 empty 15 empty 17 7 0 10 #fcfcfc #000000 #000000;
#X obj 130 860 bng 15 250 50 0 empty 16 empty 17 7 0 10 #fcfcfc #000000 #000000;
#X obj 130 880 bng 15 250 50 0 empty 17 empty 17 7 0 10 #fcfcfc #000000 #000000;
#X msg 1260 1000 0 0 0, f 1;
#X msg 1280 1000 0 0 1, f 2;
#X msg 1310 1000 0 1 0, f 2;
#X msg 1340 1000 1 0 0, f 2;
#X msg 1390 1000 1 1 0, f 2;
#X msg 1420 1000 1 1 1, f 2;
#X obj 130 910 bng 15 250 50 0 empty 17 empty 17 7 0 10 #fcfcfc #000000 #000000;
#X obj 130 940 bng 15 250 50 0 empty 18 empty 17 7 0 10 #fcfcfc #000000 #000000;
#X obj 200 950 bng 15 250 50 0 empty 19 empty 17 7 0 10 #fcfcfc #000000 #000000;
#X obj 250 940 bng 15 250 50 0 empty 20 empty 17 7 0 10 #fcfcfc #000000 #000000;
#X obj 1040 290 bng 15 250 50 0 empty 11 empty 17 7 0 10 #fcfcfc #000000 #000000;
#X obj 1060 290 loadbang;
#X msg 1000 320 800;
#X msg 1060 320 0;
#X obj 160 230 tgl 15 0 empty pulse empty 17 7 0 10 #fcfcfc #000000 #000000 0 1;
#X obj 1000 370 * 800;
#X obj 180 230 tgl 15 0 empty phrase1 empty 17 7 0 10 #fcfcfc #000000 #000000 0 1;
#X obj 210 230 tgl 15 0 empty phrase2 empty 17 7 0 10 #fcfcfc #000000 #000000 0 1;
#X obj 260 230 tgl 15 0 empty phrase4 empty 17 7 0 10 #fcfcfc #000000 #000000 0 1;
#X obj 280 230 tgl 15 0 empty phrase5 empty 17 7 0 10 #fcfcfc #000000 #000000 0 1;
#X msg 240 600 1 0 1;
#X msg 240 620 1 1 0;
#X msg 240 640 1 1 1;
#X obj 310 230 tgl 15 0 empty diana empty 17 7 0 10 #fcfcfc #000000 #000000 0 1;
#X obj 330 230 tgl 15 0 empty harmony1 empty 17 7 0 10 #fcfcfc #000000 #000000 0 1;
#X obj 130 230 tgl 15 0 empty harmony2 empty 17 7 0 10 #fcfcfc #000000 #000000 0 1;
#X obj 90 260 +;
#X obj 160 260 +;
#X obj 260 250 +;
#X obj 320 250 +;
#X obj 190 300 +;
#X obj 290 280 +;
#X obj 250 310 +;
#X floatatom 250 290 5 0 0 0 - - - 0;
#X obj 230 260 +;
#X obj 240 230 tgl 15 0 empty phrase3 empty 17 7 0 10 #fcfcfc #000000 #000000 0 1;
#X floatatom 1060 350 5 0 0 0 - - - 0;
#X floatatom 1010 420 5 0 0 0 - - - 0;
#X obj 1050 395 /;
#X obj 151 342 tgl 15 0 empty pulse empty 17 7 0 10 #fcfcfc #000000 #000000 0 1;
#X obj 171 342 tgl 15 0 empty phrase1 empty 17 7 0 10 #fcfcfc #000000 #000000 0 1;
#X obj 201 342 tgl 15 0 empty phrase2 empty 17 7 0 10 #fcfcfc #000000 #000000 0 1;
#X obj 251 342 tgl 15 0 empty phrase4 empty 17 7 0 10 #fcfcfc #000000 #000000 0 1;
#X obj 271 342 tgl 15 0 empty phrase5 empty 17 7 0 10 #fcfcfc #000000 #000000 0 1;
#X obj 301 342 tgl 15 0 empty diana empty 17 7 0 10 #fcfcfc #000000 #000000 0 1;
#X obj 321 342 tgl 15 0 empty harmony1 empty 17 7 0 10 #fcfcfc #000000 #000000 0 1;
#X obj 121 342 tgl 15 0 empty harmony2 empty 17 7 0 10 #fcfcfc #000000 #000000 0 1;
#X obj 81 372 +;
#X obj 151 372 +;
#X obj 251 362 +;
#X obj 311 362 +;
#X obj 181 412 +;
#X obj 281 392 +;
#X obj 241 422 +;
#X floatatom 241 402 5 0 0 0 - - - 0;
#X obj 221 372 +;
#X obj 231 342 tgl 15 0 empty phrase3 empty 17 7 0 10 #fcfcfc #000000 #000000 0 1;
#X floatatom 110 410 5 0 0 0 - - - 0;
#X text 110 180 the toggles of the phrases go through the system to make every number other than 0 one., f 33;
#X text 1760 630 randomise gravity;
#X text 1150 690 sets the colour of the particle system, f 22;
#X text 1150 630 will make the particles orbit the position x \, y \, z., f 32;
#X text 1210 480 how attracted the particles are to the point., f 36;
#X text 380 980 line \, fill \, point controlled by the phrases, f 10;
#X text 120 590 gravity point;
#X connect 0 0 1 0;
#X connect 2 0 1 0;
#X connect 2 0 30 0;
#X connect 2 0 32 0;
#X connect 3 0 4 0;
#X connect 3 0 28 0;
#X connect 4 0 5 0;
#X connect 5 0 9 0;
#X connect 6 0 7 0;
#X connect 7 0 4 0;
#X connect 9 0 20 0;
#X connect 10 0 9 1;
#X connect 11 0 14 0;
#X connect 12 0 11 2;
#X connect 14 0 15 0;
#X connect 15 0 31 0;
#X connect 16 0 27 1;
#X connect 17 0 27 0;
#X connect 18 0 27 0;
#X connect 19 0 27 0;
#X connect 20 0 11 0;
#X connect 21 0 26 1;
#X connect 22 0 26 0;
#X connect 23 0 26 0;
#X connect 24 0 26 0;
#X connect 28 0 33 0;
#X connect 30 0 1 0;
#X connect 31 0 27 0;
#X connect 32 0 34 0;
#X connect 33 0 29 0;
#X connect 35 0 31 1;
#X connect 36 0 6 0;
#X connect 37 0 6 0;
#X connect 38 0 6 0;
#X connect 39 0 6 0;
#X connect 40 0 41 0;
#X connect 41 0 42 0;
#X connect 42 0 43 0;
#X connect 43 0 44 0;
#X connect 43 1 45 0;
#X connect 43 2 46 0;
#X connect 43 3 47 0;
#X connect 43 4 48 0;
#X connect 43 5 49 0;
#X connect 43 6 50 0;
#X connect 43 7 51 0;
#X connect 44 0 36 0;
#X connect 45 0 36 0;
#X connect 46 0 37 0;
#X connect 47 0 37 0;
#X connect 48 0 38 0;
#X connect 49 0 38 0;
#X connect 50 0 76 0;
#X connect 51 0 39 0;
#X connect 52 0 79 0;
#X connect 53 0 40 0;
#X connect 54 0 2 0;
#X connect 55 0 0 0;
#X connect 56 0 78 0;
#X connect 57 0 56 0;
#X connect 58 0 59 0;
#X connect 58 1 60 0;
#X connect 58 2 61 0;
#X connect 58 3 62 0;
#X connect 58 4 63 0;
#X connect 58 5 64 0;
#X connect 58 6 65 0;
#X connect 59 0 12 0;
#X connect 60 0 12 0;
#X connect 61 0 12 0;
#X connect 62 0 12 0;
#X connect 63 0 12 0;
#X connect 64 0 12 0;
#X connect 65 0 12 0;
#X connect 66 0 58 0;
#X connect 67 0 71 0;
#X connect 68 0 67 0;
#X connect 69 0 68 0;
#X connect 71 0 70 0;
#X connect 72 0 14 2;
#X connect 73 0 74 0;
#X connect 74 0 8 0;
#X connect 76 0 6 0;
#X connect 78 0 66 0;
#X connect 79 0 53 0;
#X connect 80 0 11 1;
#X connect 81 0 11 1;
#X connect 82 0 11 1;
#X connect 83 0 11 1;
#X connect 84 0 81 0;
#X connect 84 0 17 0;
#X connect 84 0 90 0;
#X connect 85 0 82 0;
#X connect 85 0 18 0;
#X connect 85 0 91 0;
#X connect 86 0 83 0;
#X connect 86 0 19 0;
#X connect 86 0 92 0;
#X connect 87 0 110 0;
#X connect 87 0 17 0;
#X connect 87 0 93 0;
#X connect 88 0 111 0;
#X connect 88 0 18 0;
#X connect 88 0 72 0;
#X connect 89 0 112 0;
#X connect 89 0 19 0;
#X connect 89 0 94 0;
#X connect 90 0 14 1;
#X connect 91 0 14 1;
#X connect 92 0 14 1;
#X connect 93 0 14 1;
#X connect 94 0 14 2;
#X connect 95 0 14 2;
#X connect 96 0 17 0;
#X connect 96 0 95 0;
#X connect 97 0 18 0;
#X connect 97 0 90 0;
#X connect 98 0 19 0;
#X connect 98 0 91 0;
#X connect 99 0 17 0;
#X connect 99 0 95 0;
#X connect 101 0 103 0;
#X connect 102 0 5 1;
#X connect 103 0 5 1;
#X connect 104 0 117 0;
#X connect 105 0 5 1;
#X connect 106 0 117 1;
#X connect 106 0 117 0;
#X connect 107 0 124 0;
#X connect 108 0 118 0;
#X connect 109 0 118 1;
#X connect 109 0 118 0;
#X connect 110 0 11 1;
#X connect 111 0 11 1;
#X connect 112 0 11 1;
#X connect 113 0 119 0;
#X connect 114 0 119 1;
#X connect 114 0 119 0;
#X connect 115 0 116 1;
#X connect 115 0 116 0;
#X connect 116 0 126 0;
#X connect 117 0 120 0;
#X connect 118 0 121 0;
#X connect 119 0 121 1;
#X connect 119 0 121 0;
#X connect 120 0 122 0;
#X connect 121 0 122 1;
#X connect 121 0 122 0;
#X connect 122 0 116 0;
#X connect 124 0 120 1;
#X connect 124 0 120 0;
#X connect 125 0 124 1;
#X connect 125 0 124 0;
#X connect 126 0 128 0;
#X connect 128 0 105 0;
#X connect 128 0 127 0;
#X connect 129 0 138 0;
#X connect 129 0 138 1;
#X connect 130 0 138 1;
#X connect 130 0 138 0;
#X connect 131 0 145 0;
#X connect 132 0 139 0;
#X connect 133 0 139 1;
#X connect 133 0 139 0;
#X connect 134 0 140 0;
#X connect 135 0 140 1;
#X connect 135 0 140 0;
#X connect 136 0 137 1;
#X connect 136 0 137 0;
#X connect 137 0 128 1;
#X connect 138 0 141 0;
#X connect 138 0 147 0;
#X connect 139 0 142 0;
#X connect 140 0 142 1;
#X connect 140 0 142 0;
#X connect 141 0 143 0;
#X connect 142 0 143 1;
#X connect 142 0 143 0;
#X connect 143 0 137 0;
#X connect 145 0 141 1;
#X connect 145 0 141 0;
#X connect 146 0 145 1;
#X connect 146 0 145 0;
#X restore 1587 -610 pd gem;
#X text 1040 -456 left phrase;
#X text 1230 -456 right phrase;
#N canvas 0 39 1710 968 dianadeutsche 0;
#N canvas 0 39 1710 968 left 0;
#X obj 450 350 bng 30 250 50 0 empty playleft play 20 10 1 20 #fcfcfc #000000 #000000;
#X msg 690 340 71;
#X msg 690 370 64;
#X msg 690 400 67;
#X msg 690 440 64;
#X msg 690 470 71;
#X msg 690 500 60;
#X obj 550 390 delay 0;
#X obj 550 430 delay 300;
#X obj 550 460 delay 600;
#X obj 550 500 delay 900;
#X obj 550 530 delay 1500;
#X obj 550 570 delay 1800;
#X obj 550 610 delay 2100;
#X msg 400 150 1;
#X msg 450 150 bang;
#X msg 500 170 0;
#X msg 540 170 stop;
#X msg 590 180 tempo 2 msec;
#X floatatom 500 230 5 0 0 0 - - - 0;
#X obj 400 90 r playleft;
#X obj 550 90 r stopleft;
#X obj 400 250 metro 2400;
#X obj 830 420 s leftsynth;
#X text 731 341 sequenced pitches;
#X text 874 403 output to left synth in additive subpatch;
#X text 631 559 sequence of delays to form melody, f 8;
#X connect 0 0 7 0;
#X connect 0 0 8 0;
#X connect 0 0 9 0;
#X connect 0 0 10 0;
#X connect 0 0 11 0;
#X connect 0 0 12 0;
#X connect 0 0 13 0;
#X connect 1 0 23 0;
#X connect 2 0 23 0;
#X connect 3 0 23 0;
#X connect 4 0 23 0;
#X connect 5 0 23 0;
#X connect 6 0 23 0;
#X connect 8 0 1 0;
#X connect 9 0 2 0;
#X connect 10 0 3 0;
#X connect 11 0 4 0;
#X connect 12 0 5 0;
#X connect 13 0 6 0;
#X connect 14 0 22 0;
#X connect 15 0 22 0;
#X connect 16 0 22 0;
#X connect 17 0 22 0;
#X connect 18 0 22 0;
#X connect 19 0 22 1;
#X connect 20 0 14 0;
#X connect 21 0 16 0;
#X connect 22 0 0 0;
#X restore 350 80 pd left;
#N canvas 0 39 1710 968 right 0;
#X obj 240 300 bng 30 250 50 0 empty playright play -2 -19 1 20 #fcfcfc #000000 #000000;
#X msg 520 300 62;
#X msg 520 330 69;
#X msg 520 360 65;
#X msg 520 390 69;
#X msg 520 420 62;
#X msg 520 480 72;
#X obj 410 340 delay 0;
#X obj 400 370 delay 300;
#X obj 400 400 delay 600;
#X obj 400 430 delay 900;
#X obj 260 200 metro 2400;
#X msg 260 100 1;
#X msg 310 100 bang;
#X msg 360 120 0;
#X msg 400 120 stop;
#X msg 450 130 tempo 2 msec;
#X floatatom 360 180 5 0 0 0 - - - 0;
#X obj 260 40 r playright;
#X obj 410 40 r stopright;
#X obj 640 360 s rightsynth;
#X obj 400 460 delay 1500;
#X obj 400 490 delay 1800;
#X obj 400 570 delay 2100;
#X text 679 341 outputs to right synth;
#X text 548 284 sequenced pitches;
#X text 394 609 sequenced delays;
#X connect 0 0 8 0;
#X connect 0 0 9 0;
#X connect 0 0 10 0;
#X connect 0 0 7 0;
#X connect 0 0 21 0;
#X connect 0 0 22 0;
#X connect 0 0 23 0;
#X connect 1 0 20 0;
#X connect 2 0 20 0;
#X connect 3 0 20 0;
#X connect 4 0 20 0;
#X connect 5 0 20 0;
#X connect 6 0 20 0;
#X connect 8 0 1 0;
#X connect 9 0 2 0;
#X connect 10 0 3 0;
#X connect 11 0 0 0;
#X connect 12 0 11 0;
#X connect 13 0 11 0;
#X connect 14 0 11 0;
#X connect 15 0 11 0;
#X connect 16 0 11 0;
#X connect 17 0 11 1;
#X connect 18 0 12 0;
#X connect 19 0 14 0;
#X connect 21 0 4 0;
#X connect 22 0 5 0;
#X connect 23 0 6 0;
#X restore 470 80 pd right;
#X coords 0 0 1 1 109 71 0;
#X restore 1000 -420 pd dianadeutsche;
#X obj 1113 87 cnv 15 479 100 empty empty empty 20 12 0 14 #e0e0e0 #404040 0;
#X obj 1133 127 bng 20 250 50 0 empty sC\$1 w 0 -8 0 10 #878787 #151515 #000000;
#X obj 1123 157 bng 20 250 50 0 empty sC1 a 0 -8 0 10 #fcfcfc #000000 #000000;
#X obj 1143 157 bng 20 250 50 0 empty sD1 s 0 -8 0 10 #fcfcfc #000000 #000000;
#X obj 1163 157 bng 20 250 50 0 empty sE1 d 0 -8 0 10 #fcfcfc #000000 #000000;
#X obj 1183 157 bng 20 250 50 0 empty sF1 f 0 -8 0 10 #fcfcfc #000000 #000000;
#X obj 1203 157 bng 20 250 50 0 empty sG1 g 0 -8 0 10 #fcfcfc #000000 #000000;
#X obj 1223 157 bng 20 250 50 0 empty sA1 h 0 -8 0 10 #fcfcfc #000000 #000000;
#X obj 1243 157 bng 20 250 50 0 empty sB1 j 0 -8 0 10 #fcfcfc #000000 #000000;
#X obj 1153 127 bng 20 250 50 0 empty sD\$1 e 0 -8 0 10 #878787 #151515 #000000;
#X obj 1193 127 bng 20 250 50 0 empty sF\$1 t 0 -8 0 10 #878787 #151515 #000000;
#X obj 1213 127 bng 20 250 50 0 empty sG\$1 y 0 -8 0 10 #878787 #151515 #000000;
#X obj 1233 127 bng 20 250 50 0 empty sA\$1 u 0 -8 0 10 #878787 #151515 #000000;
#X obj 1273 127 bng 20 250 50 0 empty sC\$2 W 0 -7 0 10 #878787 #151515 #000000;
#X obj 1263 157 bng 20 250 50 0 empty sC2 A 0 -7 0 10 #fcfcfc #000000 #000000;
#X obj 1283 157 bng 20 250 50 0 empty sD2 S 0 -7 0 10 #fcfcfc #000000 #000000;
#X obj 1303 157 bng 20 250 50 0 empty sE2 D 0 -7 0 10 #fcfcfc #000000 #000000;
#X obj 1323 157 bng 20 250 50 0 empty sF2 F 0 -7 0 10 #fcfcfc #000000 #000000;
#X obj 1343 157 bng 20 250 50 0 empty sG2 G 0 -7 0 10 #fcfcfc #000000 #000000;
#X obj 1363 157 bng 20 250 50 0 empty sA2 H 0 -7 0 10 #fcfcfc #000000 #000000;
#X obj 1383 157 bng 20 250 50 0 empty sB2 J 0 -7 0 10 #fcfcfc #000000 #000000;
#X obj 1293 127 bng 20 250 50 0 empty sD\$2 E 0 -7 0 10 #878787 #151515 #000000;
#X obj 1333 127 bng 20 250 50 0 empty sF\$2 T 0 -7 0 10 #878787 #151515 #000000;
#X obj 1353 127 bng 20 250 50 0 empty sG\$2 Y 0 -7 0 10 #878787 #151515 #000000;
#X obj 1373 127 bng 20 250 50 0 empty sA\$2 U 0 -7 0 10 #878787 #151515 #000000;
#X obj 1403 157 bng 20 250 50 0 empty sC3 K 0 -7 0 10 #fcfcfc #000000 #000000;
#N canvas 373 128 1268 829 keyb 0;
#X floatatom 400 120 5 0 0 0 - - - 0;
#X obj 400 70 key;
#X obj 200 10 select 97;
#X obj 200 39 bng 15 250 50 0 sC1 empty empty 17 7 0 10 #fcfcfc #000000 #000000;
#X obj 200 100 bng 15 250 50 0 sC\$1 empty empty 17 7 0 10 #fcfcfc #000000 #000000;
#X obj 200 71 select 119;
#X obj 200 160 bng 15 250 50 0 sD1 empty empty 17 7 0 10 #fcfcfc #000000 #000000;
#X obj 200 131 select 115;
#X obj 200 221 bng 15 250 50 0 sD\$1 empty empty 17 7 0 10 #fcfcfc #000000 #000000;
#X obj 200 192 select 101;
#X obj 200 281 bng 15 250 50 0 sE1 empty empty 17 7 0 10 #fcfcfc #000000 #000000;
#X obj 200 251 select 100;
#X obj 200 341 bng 15 250 50 0 sF1 empty empty 17 7 0 10 #fcfcfc #000000 #000000;
#X obj 200 311 select 102;
#X obj 200 401 bng 15 250 50 0 sF\$1 empty empty 17 7 0 10 #fcfcfc #000000 #000000;
#X obj 200 372 select 116;
#X obj 200 461 bng 15 250 50 0 sG1 empty empty 17 7 0 10 #fcfcfc #000000 #000000;
#X obj 200 432 select 103;
#X obj 200 519 bng 15 250 50 0 sG\$1 empty empty 17 7 0 10 #fcfcfc #000000 #000000;
#X obj 200 490 select 121;
#X obj 200 579 bng 15 250 50 0 sA1 empty empty 17 7 0 10 #fcfcfc #000000 #000000;
#X obj 200 550 select 104;
#X obj 200 639 bng 15 250 50 0 sA\$1 empty empty 17 7 0 10 #fcfcfc #000000 #000000;
#X obj 200 610 select 117;
#X obj 200 670 select 106;
#X obj 550 38 bng 15 250 50 0 sC2 empty empty 17 7 0 10 #fcfcfc #000000 #000000;
#X obj 550 99 bng 15 250 50 0 sC\$2 empty empty 17 7 0 10 #fcfcfc #000000 #000000;
#X obj 550 159 bng 15 250 50 0 sD2 empty empty 17 7 0 10 #fcfcfc #000000 #000000;
#X obj 550 220 bng 15 250 50 0 sD\$2 empty empty 17 7 0 10 #fcfcfc #000000 #000000;
#X obj 550 280 bng 15 250 50 0 sE2 empty empty 17 7 0 10 #fcfcfc #000000 #000000;
#X obj 550 340 bng 15 250 50 0 sF2 empty empty 17 7 0 10 #fcfcfc #000000 #000000;
#X obj 550 400 bng 15 250 50 0 sF\$2 empty empty 17 7 0 10 #fcfcfc #000000 #000000;
#X obj 550 460 bng 15 250 50 0 sG2 empty empty 17 7 0 10 #fcfcfc #000000 #000000;
#X obj 550 518 bng 15 250 50 0 sG\$2 empty empty 17 7 0 10 #fcfcfc #000000 #000000;
#X obj 550 578 bng 15 250 50 0 sA2 empty empty 17 7 0 10 #fcfcfc #000000 #000000;
#X obj 550 638 bng 15 250 50 0 sA\$2 empty empty 17 7 0 10 #fcfcfc #000000 #000000;
#X obj 550 9 select 65;
#X obj 550 70 select 87;
#X obj 550 130 select 83;
#X obj 550 191 select 69;
#X obj 550 250 select 68;
#X obj 550 310 select 70;
#X obj 550 371 select 84;
#X obj 550 431 select 71;
#X obj 550 489 select 89;
#X obj 550 549 select 72;
#X obj 550 610 select 85;
#X obj 550 669 select 74;
#X obj 200 730 select 107;
#X obj 550 730 select 75;
#X floatatom 351 -48 5 0 0 0 - outputSwitch - 0;
#X obj 421 2 select 0;
#X obj 341 2 select 1;
#X obj 200 700 bng 15 250 50 0 sB1 empty empty 17 7 0 10 #fcfcfc #000000 #000000;
#X obj 200 760 bng 15 250 50 0 sC2 empty empty 17 7 0 10 #fcfcfc #000000 #000000;
#X obj 550 700 bng 15 250 50 0 sB2 empty empty 17 7 0 10 #fcfcfc #000000 #000000;
#X obj 550 760 bng 15 250 50 0 sC3 empty empty 17 7 0 10 #fcfcfc #000000 #000000;
#X connect 0 0 2 0;
#X connect 0 0 5 0;
#X connect 0 0 7 0;
#X connect 0 0 9 0;
#X connect 0 0 11 0;
#X connect 0 0 13 0;
#X connect 0 0 15 0;
#X connect 0 0 17 0;
#X connect 0 0 19 0;
#X connect 0 0 21 0;
#X connect 0 0 23 0;
#X connect 0 0 24 0;
#X connect 0 0 36 0;
#X connect 0 0 37 0;
#X connect 0 0 38 0;
#X connect 0 0 39 0;
#X connect 0 0 40 0;
#X connect 0 0 41 0;
#X connect 0 0 42 0;
#X connect 0 0 43 0;
#X connect 0 0 44 0;
#X connect 0 0 45 0;
#X connect 0 0 46 0;
#X connect 0 0 47 0;
#X connect 0 0 48 0;
#X connect 0 0 49 0;
#X connect 1 0 0 0;
#X connect 2 0 3 0;
#X connect 5 0 4 0;
#X connect 7 0 6 0;
#X connect 9 0 8 0;
#X connect 11 0 10 0;
#X connect 13 0 12 0;
#X connect 15 0 14 0;
#X connect 17 0 16 0;
#X connect 19 0 18 0;
#X connect 21 0 20 0;
#X connect 23 0 22 0;
#X connect 24 0 53 0;
#X connect 36 0 25 0;
#X connect 37 0 26 0;
#X connect 38 0 27 0;
#X connect 39 0 28 0;
#X connect 40 0 29 0;
#X connect 41 0 30 0;
#X connect 42 0 31 0;
#X connect 43 0 32 0;
#X connect 44 0 33 0;
#X connect 45 0 34 0;
#X connect 46 0 35 0;
#X connect 47 0 55 0;
#X connect 48 0 54 0;
#X connect 49 0 56 0;
#X connect 50 0 52 0;
#X connect 50 0 51 0;
#X restore 1121 95 pd keyb;
#N canvas 20 84 1829 866 key_to_midi 0;
#X obj 800 280 key;
#X msg 590 490 60;
#X obj 930 810 s m_voice;
#X msg 640 490 61;
#X msg 690 490 62;
#X msg 730 490 63;
#X msg 770 490 64;
#X msg 810 490 65;
#X msg 860 490 66;
#X msg 910 490 67;
#X msg 960 490 68;
#X msg 1000 490 69;
#X msg 1050 490 70;
#X msg 1100 490 71;
#X msg 1150 490 72;
#X msg 1200 490 73;
#X msg 1250 490 74;
#X msg 1300 490 75;
#X msg 1340 490 76;
#X msg 1380 490 77;
#X msg 1430 490 78;
#X msg 1480 490 79;
#X msg 1530 490 80;
#X msg 1580 490 81;
#X msg 1630 490 82;
#X msg 1680 490 83;
#X msg 1720 490 84;
#X obj 1000 320 select 97 119 115 101 100 102 116 103 121 104 117 106 65 87 83 69 68 70 84 71 89 72 85 74 75;
#X connect 0 0 27 0;
#X connect 1 0 2 0;
#X connect 3 0 2 0;
#X connect 4 0 2 0;
#X connect 5 0 2 0;
#X connect 6 0 2 0;
#X connect 7 0 2 0;
#X connect 8 0 2 0;
#X connect 9 0 2 0;
#X connect 10 0 2 0;
#X connect 11 0 2 0;
#X connect 12 0 2 0;
#X connect 13 0 2 0;
#X connect 14 0 2 0;
#X connect 15 0 2 0;
#X connect 16 0 2 0;
#X connect 17 0 2 0;
#X connect 18 0 2 0;
#X connect 19 0 2 0;
#X connect 20 0 2 0;
#X connect 21 0 2 0;
#X connect 22 0 2 0;
#X connect 23 0 2 0;
#X connect 24 0 2 0;
#X connect 25 0 2 0;
#X connect 26 0 2 0;
#X connect 27 0 1 0;
#X connect 27 1 3 0;
#X connect 27 2 4 0;
#X connect 27 3 5 0;
#X connect 27 4 6 0;
#X connect 27 5 7 0;
#X connect 27 6 8 0;
#X connect 27 7 9 0;
#X connect 27 8 10 0;
#X connect 27 9 11 0;
#X connect 27 10 12 0;
#X connect 27 11 13 0;
#X connect 27 12 14 0;
#X connect 27 13 15 0;
#X connect 27 14 16 0;
#X connect 27 15 17 0;
#X connect 27 16 18 0;
#X connect 27 17 19 0;
#X connect 27 18 20 0;
#X connect 27 19 21 0;
#X connect 27 20 22 0;
#X connect 27 21 23 0;
#X connect 27 22 24 0;
#X connect 27 23 25 0;
#X connect 27 24 26 0;
#X restore 1191 95 pd key_to_midi;
#X obj 470 -158 vsl 33 114 10 57 0 0 reverb revcontrol empty 0 -9 0 10 #00ff40 #000000 #000000 0 1;
#X obj 680 -158 vsl 33 112 10 57 0 0 tapeecho tapecontrol empty 0 -9 0 10 #00ff40 #000000 #000000 0 1;
#X obj 1160 -166 bng 21 250 50 0 two_notes empty and\ me! -5 25 0 10 #00ffff #000000 #000000;
#X obj 1250 -166 bng 21 250 50 0 many_notes empty and\ me!!! -5 25 0 10 #00ffff #000000 #000000;
#X obj 1070 -166 bng 21 250 50 0 bass_motif empty click\ me -5 25 0 10 #00ffff #000000 #000000;
#X text 1147 -196 two notes;
#X text 1229 -196 multiple notes;
#X text 1055 -196 bass motif;
#X obj 767 -408 vsl 15 128 10 1500 0 0 decay empty DECAY\ AMOUNT -20 -10 0 10 #e3c6ff #000000 #000000 0 1;
#N canvas 1 1 1710 973 additive 0;
#X obj 720 530 dac~;
#X obj 790 160 r m_voice;
#X obj 740 160 r notes;
#X floatatom 740 190 5 0 0 0 - - - 0;
#X obj 740 350 *~;
#X floatatom 830 420 5 0 0 0 - - - 0;
#N canvas 1259 438 522 424 oscs 0;
#X obj 50 170 osc~;
#X obj 140 190 osc~;
#X obj 140 100 * 1.015;
#X obj 220 220 osc~;
#X obj 220 100 * 0.503;
#X obj 300 130 osc~;
#X obj 380 130 osc~;
#X obj 380 100 * 2.01;
#X obj 300 100 * 1.496;
#X obj 300 240 *~ 0.5;
#X obj 380 270 *~ 0.25;
#X obj 50 30 inlet;
#X obj 60 330 outlet~;
#X text 100 130 slight detune above base pitch, f 12;
#X text 200 140 slight detune below base pitch, f 12;
#X text 310 170 near a perfect 5th, f 9;
#X text 240 50 partials!;
#X text 410 160 one octave and a bit above, f 15;
#X text 60 360 summed output of all oscillators mixed into additive synth voice;
#X connect 0 0 12 0;
#X connect 1 0 12 0;
#X connect 2 0 1 0;
#X connect 3 0 12 0;
#X connect 4 0 3 0;
#X connect 5 0 9 0;
#X connect 6 0 10 0;
#X connect 7 0 6 0;
#X connect 8 0 5 0;
#X connect 9 0 12 0;
#X connect 10 0 12 0;
#X connect 11 0 0 0;
#X connect 11 0 2 0;
#X connect 11 0 8 0;
#X connect 11 0 7 0;
#X connect 11 0 4 0;
#X restore 421 531 pd oscs;
#N canvas 1056 75 750 968 envelope 0;
#X obj 170 170 line~;
#X obj 150 60 bng 19 250 50 0 empty empty empty 17 7 0 10 #fcfcfc #000000 #000000;
#X obj 200 130 pack 0 500;
#X floatatom 300 100 5 0 0 0 - - - 0;
#X obj 170 210 *~;
#X obj 170 240 *~;
#X obj 200 80 del 50;
#X msg 150 130 1 3;
#X obj 110 20 inlet;
#X obj 170 290 outlet~;
#X text 290 160 a simple envelope using line~. triggers a fast attack and decays over 500 ms. used to shape the amplitude of the signal;
#X text 280 130 decay message;
#X text 240 60 wait 50ms;
#X connect 0 0 4 0;
#X connect 0 0 4 1;
#X connect 1 0 7 0;
#X connect 1 0 6 0;
#X connect 2 0 0 0;
#X connect 3 0 2 1;
#X connect 4 0 5 0;
#X connect 4 0 5 1;
#X connect 5 0 9 0;
#X connect 6 0 2 0;
#X connect 7 0 0 0;
#X connect 8 0 1 0;
#X restore 421 581 pd envelope;
#N canvas 0 0 1904 968 synth 0;
#X obj 130 420 *~;
#X obj 320 310 line~;
#X obj 300 200 bng 19 250 50 0 empty empty empty 17 7 0 10 #fcfcfc #000000 #000000;
#X obj 350 270 pack 0 500;
#X floatatom 450 240 5 0 0 0 - - - 0;
#X obj 320 350 *~;
#X obj 320 380 *~;
#X obj 350 220 del 50;
#X msg 300 270 1 3;
#X obj 130 180 mtof;
#X obj 130 250 osc~;
#X obj 130 40 inlet;
#X obj 130 480 outlet~;
#X obj 410 170 loadbang;
#X msg 410 200 2000;
#X text 200 40 receives midi pitch value;
#X text 410 300 attack decay envelope generator;
#X text 160 220 generates sine wave;
#X connect 0 0 12 0;
#X connect 1 0 5 0;
#X connect 1 0 5 1;
#X connect 2 0 8 0;
#X connect 2 0 7 0;
#X connect 3 0 1 0;
#X connect 4 0 3 1;
#X connect 5 0 6 0;
#X connect 5 0 6 1;
#X connect 6 0 0 1;
#X connect 7 0 3 0;
#X connect 8 0 1 0;
#X connect 9 0 10 0;
#X connect 10 0 0 0;
#X connect 11 0 9 0;
#X connect 13 0 14 0;
#X connect 14 0 4 0;
#X restore 421 621 pd synth;
#X obj 740 320 clone synth.cl 64;
#X msg 742 276 next \$1;
#X obj 710 310 bng 15 250 50 0 empty empty empty 17 7 0 10 #fcfcfc #000000 #000000;
#X obj 421 761 s decay;
#X floatatom 421 721 5 0 0 0 - - - 0;
#X text 451 741 decay control;
#N canvas 16 56 1904 968 reverb 0;
#X obj 320 670 delwrite~ dly1 43;
#X obj 407 630 delwrite~ dly2 59;
#X obj 474 587 delwrite~ dly3 71;
#X obj 539 545 delwrite~ dly4 89;
#X obj 132 152 +~;
#X obj 360 130 +~;
#X obj 370 10 delread~ dly1 43;
#X obj 416 41 delread~ dly2 59;
#X obj 234 324 +~;
#X obj 391 324 +~;
#X obj 277 327 -~;
#X obj 431 323 -~;
#X obj 504 72 delread~ dly1 71;
#X obj 550 103 delread~ dly2 89;
#X obj 232 402 +~;
#X obj 287 406 +~;
#X obj 397 404 -~;
#X obj 457 400 -~;
#X obj 244 471 *~;
#X obj 291 470 *~;
#X obj 384 464 *~;
#X obj 474 453 *~;
#X floatatom 827 156 5 0 0 0 - - - 0;
#X obj 830 200 / 200;
#X obj 10 120 outlet~;
#X obj 50 53 inlet~;
#X obj 885 95 r reverb;
#X text 740 350 Implementation of a schroeder algorithmic reverb. A 4 tap feedback reverb using prime lenghth delays and mixing matrix, f 36;
#X text 533 750 receives the processed and mixed signal from the feedback matrix network and writes it back to the corresponding line, f 46;
#X text 590 10 delay lines with prime numbers to avoid phase reinforcement and metallic resonance, f 27;
#X text 140 10 it's an implementation of a Householder matrix \, which distributes energy evenly and keeps the decay rich and long, f 32;
#X text 407 113 this is part of a feedback matrix using adds \, subs and gains, f 12;
#X text 257 223 matrix mixing section;
#X text 467 213 it mixes outputs of each delay \, feedbacks into other delay lines and thus creates a dense and diffused tail by feeding he output of one delay into others, f 23;
#X text 20 150 sends reverb processed signal back out to main patch, f 10;
#X text 900 210 scaling factor;
#X connect 4 0 8 0;
#X connect 4 0 10 0;
#X connect 4 0 24 0;
#X connect 5 0 8 1;
#X connect 5 0 10 1;
#X connect 5 0 24 0;
#X connect 6 0 4 1;
#X connect 7 0 5 1;
#X connect 8 0 14 0;
#X connect 8 0 16 0;
#X connect 9 0 14 1;
#X connect 9 0 16 1;
#X connect 10 0 15 0;
#X connect 10 0 17 0;
#X connect 11 0 15 1;
#X connect 11 0 17 1;
#X connect 12 0 9 0;
#X connect 12 0 11 0;
#X connect 13 0 9 1;
#X connect 13 0 11 1;
#X connect 14 0 18 0;
#X connect 15 0 19 0;
#X connect 16 0 20 0;
#X connect 17 0 21 0;
#X connect 18 0 0 0;
#X connect 19 0 1 0;
#X connect 20 0 2 0;
#X connect 21 0 3 0;
#X connect 22 0 23 0;
#X connect 23 0 18 1;
#X connect 23 0 19 1;
#X connect 23 0 20 1;
#X connect 23 0 21 1;
#X connect 25 0 4 0;
#X connect 25 0 5 0;
#X connect 26 0 22 0;
#X restore 740 410 pd reverb;
#N canvas 0 0 1904 968 tape 0;
#X obj 1046 333 delwrite~ delay_line 1000;
#X obj 1030 581 send~ feedback;
#X obj 1046 281 receive~ feedback;
#X obj 1019 400 *~;
#X floatatom 920 190 5 0 0 0 - - - 0;
#X obj 921 225 / 100;
#X floatatom 1430 425 5 0 0 0 - - - 0;
#X obj 1046 370 delread~ delay_line 250;
#X obj 1400 470 lop~;
#X obj 1530 478 bp~ 1000 10;
#X floatatom 1543 419 5 0 0 0 - - - 0;
#X obj 240 140 inlet~;
#X obj 910 530 outlet~;
#X obj 880 140 r tapeecho;
#X text 500 60 single tap delay with controllable feedback that mimicks a classic tape style echo. feedback path is filtered and scaled to simulate how tape repeats degrade over time;
#X text 1220 330 write input+feedbaxk into 1 second buffer;
#X text 1220 370 read from buffer after 250ms;
#X text 1050 400 scale delayed signal by feedback amount;
#X text 1010 620 circular audio feedback routing between echo repetitions;
#X text 960 160 control the amount of feedback;
#X text 1400 510 simulates freq loss on tape with filter before it re enters the delay line;
#X connect 2 0 0 0;
#X connect 3 0 8 0;
#X connect 3 0 9 0;
#X connect 3 0 12 0;
#X connect 4 0 5 0;
#X connect 5 0 3 0;
#X connect 6 0 8 1;
#X connect 7 0 3 1;
#X connect 8 0 1 0;
#X connect 10 0 9 1;
#X connect 11 0 0 0;
#X connect 11 0 12 0;
#X connect 13 0 4 0;
#X restore 740 440 pd tape echo;
#X obj 830 360 loadbang;
#N canvas 346 138 1212 691 composing 0;
#X floatatom 700 230 5 0 0 0 - - - 0;
#X obj 700 120 tgl 17 0 empty empty empty 17 7 0 10 #fcfcfc #000000 #000000 0 1;
#X floatatom 700 260 5 0 0 0 - - - 0;
#X obj 780 360 s notes;
#N canvas 805 212 450 300 two_notes 0;
#X obj 80 40 inlet;
#X obj 80 70 metro 500;
#X obj 80 100 tgl 15 0 empty empty empty 17 7 0 10 #fcfcfc #000000 #000000 0 1;
#X floatatom 80 210 5 0 0 0 - - - 0;
#X obj 80 250 outlet;
#X obj 80 140 sel 0 1 2;
#X msg 50 170 60;
#X msg 90 170 64;
#X connect 0 0 1 0;
#X connect 1 0 2 0;
#X connect 2 0 5 0;
#X connect 3 0 4 0;
#X connect 5 0 6 0;
#X connect 5 1 7 0;
#X connect 6 0 3 0;
#X connect 7 0 3 0;
#X restore 700 150 pd two_notes;
#N canvas 836 415 506 444 many_notes 0;
#X obj 270 130 table notes;
#X obj 30 290 tabread notes;
#X floatatom 30 260 5 0 0 0 - - - 0;
#X floatatom 30 320 5 0 0 0 - - - 0;
#X obj 30 20 inlet;
#X obj 30 50 metro 125;
#X obj 30 90 bng 26 250 50 0 empty empty empty 17 7 0 10 #fcfcfc #000000 #000000;
#X obj 30 140 i 0;
#X obj 60 170 + 1;
#X obj 60 200 % 6;
#X obj 30 360 outlet;
#X msg 150 50 \; notes 0 64 71 66 72 74 62;
#X connect 1 0 3 0;
#X connect 2 0 1 0;
#X connect 3 0 10 0;
#X connect 4 0 5 0;
#X connect 5 0 6 0;
#X connect 6 0 7 0;
#X connect 7 0 8 0;
#X connect 7 0 2 0;
#X connect 8 0 9 0;
#X connect 9 0 7 1;
#X restore 880 150 pd many_notes;
#X obj 850 90 tgl 16 0 empty empty empty 17 7 0 10 #fcfcfc #000000 #000000 0 1;
#X obj 280 220 metro 2000;
#X obj 280 180 tgl 15 0 empty empty empty 17 7 0 10 #fcfcfc #000000 #000000 0 1;
#X floatatom 370 290 5 0 0 0 - - - 0;
#N canvas 458 292 506 444 many_notes 0;
#X obj 270 130 table notes;
#X obj 30 290 tabread notes;
#X floatatom 30 260 5 0 0 0 - - - 0;
#X floatatom 30 320 5 0 0 0 - - - 0;
#X obj 30 20 inlet;
#X obj 30 50 metro 125;
#X obj 30 140 i 0;
#X obj 60 170 + 1;
#X obj 60 200 % 6;
#X obj 30 360 outlet;
#X msg 150 50 \; notes 0 64 71 66 72 74 62;
#X obj 30 90 tgl 15 0 empty empty empty 17 7 0 10 #fcfcfc #000000 #000000 0 1;
#X connect 1 0 3 0;
#X connect 2 0 1 0;
#X connect 3 0 9 0;
#X connect 4 0 5 0;
#X connect 5 0 11 0;
#X connect 6 0 7 0;
#X connect 6 0 2 0;
#X connect 7 0 8 0;
#X connect 8 0 6 1;
#X connect 11 0 6 0;
#X restore 790 160 pd many_notes;
#X floatatom 780 200 5 0 0 0 - - - 0;
#X obj 880 260 pipe 667;
#X obj 290 130 loadbang;
#X text 770 290 reich-esque tests;
#X text 120 250 randomises sequences;
#X obj 980 90 tgl 16 0 empty empty empty 17 7 0 10 #fcfcfc #000000 #000000 0 1;
#N canvas 845 342 509 378 bass_motif 0;
#X obj 170 30 inlet;
#X obj 170 70 metro 500;
#X obj 170 110 tgl 15 0 empty empty empty 17 7 0 10 #fcfcfc #000000 #000000 0 1;
#X obj 170 150 sel 0 1 2 3 4;
#X floatatom 170 240 5 0 0 0 - - - 0;
#X obj 170 280 outlet;
#X msg 140 200 36;
#X msg 190 200 36;
#X connect 0 0 1 0;
#X connect 1 0 2 0;
#X connect 2 0 3 0;
#X connect 3 0 6 0;
#X connect 3 1 7 0;
#X connect 4 0 5 0;
#X connect 6 0 4 0;
#X connect 7 0 4 0;
#X restore 1000 140 pd bass_motif;
#X obj 840 340 s gem_seq2;
#X obj 950 330 s gem_seq3;
#X floatatom 1010 180 5 0 0 0 - - - 0;
#X obj 400 320 s speed;
#X obj 1010 220 bng 14 250 50 0 seq1 empty empty 17 7 0 10 #fcfcfc #000000 #000000;
#X obj 280 260 random 6;
#X obj 260 290 sel 0 1 2 3 4 5;
#X text 490 480 +1 octave;
#X text 330 460 laurie spiegel- esque, f 10;
#X text 420 480 inverse laurie, f 7;
#X obj 710 60 r two_notes;
#X obj 860 60 r many_notes;
#X obj 980 60 r bass_motif;
#X msg 100 330 \; notes 0 65 67 64 65 67 72 64 65, f 9;
#X msg 180 330 \; notes 0 79 76 77 79 84 76 77 79, f 9;
#X msg 260 330 \; notes 0 76 77 79 84 76 77 79 76, f 8;
#X msg 330 390 \; notes 0 67 67 64 64 64 64 64, f 9;
#X msg 410 400 \; notes 0 62 62 64 64 64 67 67, f 9;
#X msg 490 400 \; notes 0 79 79 76 76 76 74 74, f 8;
#X connect 0 0 2 0;
#X connect 1 0 4 0;
#X connect 2 0 3 0;
#X connect 2 0 18 0;
#X connect 4 0 0 0;
#X connect 5 0 12 0;
#X connect 6 0 5 0;
#X connect 6 0 10 0;
#X connect 7 0 23 0;
#X connect 8 0 7 0;
#X connect 9 0 21 0;
#X connect 10 0 11 0;
#X connect 11 0 19 0;
#X connect 12 0 0 0;
#X connect 13 0 8 0;
#X connect 16 0 17 0;
#X connect 17 0 0 0;
#X connect 17 0 20 0;
#X connect 20 0 22 0;
#X connect 23 0 9 0;
#X connect 23 0 24 0;
#X connect 24 0 31 0;
#X connect 24 1 32 0;
#X connect 24 2 33 0;
#X connect 24 3 34 0;
#X connect 24 4 35 0;
#X connect 24 5 36 0;
#X connect 28 0 1 0;
#X connect 29 0 6 0;
#X connect 30 0 16 0;
#X restore 1499 854 pd composing;
#X obj 1220 200 r rightsynth;
#X floatatom 1280 240 5 0 0 0 - - - 0;
#X obj 1330 310 clone synth.cl 64;
#X msg 1350 260 next \$1;
#X obj 1290 300 bng 15 250 50 0 empty empty empty 17 7 0 10 #fcfcfc #000000 #000000;
#X obj 1130 370 *~;
#X floatatom 1270 450 5 0 0 0 - - - 0;
#X obj 1270 390 loadbang;
#X obj 1130 590 dac~;
#N canvas 0 0 1904 968 reverb 0;
#X obj 380 690 delwrite~ dly1 43;
#X obj 504 650 delwrite~ dly2 59;
#X obj 571 607 delwrite~ dly3 71;
#X obj 636 565 delwrite~ dly4 89;
#X obj 290 140 +~;
#X obj 338 141 +~;
#X obj 500 30 delread~ dly1 43;
#X obj 546 61 delread~ dly2 59;
#X obj 247 284 +~;
#X obj 404 284 +~;
#X obj 290 287 -~;
#X obj 444 283 -~;
#X obj 660 60 delread~ dly1 71;
#X obj 706 91 delread~ dly2 89;
#X obj 233 347 +~;
#X obj 300 366 +~;
#X obj 410 364 -~;
#X obj 470 360 -~;
#X obj 390 540 *~;
#X obj 461 553 *~;
#X obj 554 547 *~;
#X obj 644 536 *~;
#X floatatom 950 140 5 0 0 0 - - - 0;
#X obj 953 184 / 200;
#X obj 20 260 outlet~;
#X obj 50 53 inlet~;
#X obj 1008 79 r reverb;
#X obj 1263 134 bng 15 250 50 0 empty presetreverb1 empty 17 7 0 10 #fcfcfc #000000 #000000;
#X floatatom 1213 194 5 0 0 0 - - revcontrol 0;
#X msg 1203 154 60;
#X obj 1373 274 bng 15 250 50 0 empty presetreverb2 empty 17 7 0 10 #fcfcfc #000000 #000000;
#X obj 1413 334 bng 15 250 50 0 empty presetreverb3 empty 17 7 0 10 #fcfcfc #000000 #000000;
#X msg 1323 304 40, f 4;
#X msg 1353 354 50;
#X text 1373 104 preset system;
#X text 1223 114 preset 1;
#X text 1363 234 preset 2;
#X text 1423 304 preset3;
#X text 30 290 sends reverb processed signal back out to main patch, f 10;
#X text 330 10 delay lines with prime numbers to avoid phase reinforcement and metallic resonance, f 27;
#X text 490 100 this is part of a feedback matrix using adds \, subs and gains, f 12;
#X text 620 0 it's an implementation of a Householder matrix \, which distributes energy evenly and keeps the decay rich and long, f 32;
#X text 340 210 matrix mixing section;
#X text 550 200 it mixes outputs of each delay \, feedbacks into other delay lines and thus creates a dense and diffused tail by feeding he output of one delay into others, f 23;
#X text 970 210 scaling factor;
#X text 880 140 rev amount;
#X text 850 460 Implementation of a schroeder algorithmic reverb. A 4 tap feedback reverb using prime lenghth delays and mixing matrix, f 36;
#X text 500 710 receives the processed and mixed signal from the feedback matrix network and writes it back to the corresponding line, f 46;
#X connect 4 0 8 0;
#X connect 4 0 10 0;
#X connect 4 0 24 0;
#X connect 5 0 8 1;
#X connect 5 0 10 1;
#X connect 5 0 24 0;
#X connect 6 0 4 1;
#X connect 7 0 5 1;
#X connect 8 0 14 0;
#X connect 8 0 16 0;
#X connect 9 0 14 1;
#X connect 9 0 16 1;
#X connect 10 0 15 0;
#X connect 10 0 17 0;
#X connect 11 0 15 1;
#X connect 11 0 17 1;
#X connect 12 0 9 0;
#X connect 12 0 11 0;
#X connect 13 0 9 1;
#X connect 13 0 11 1;
#X connect 14 0 18 0;
#X connect 15 0 19 0;
#X connect 16 0 20 0;
#X connect 17 0 21 0;
#X connect 18 0 0 0;
#X connect 19 0 1 0;
#X connect 20 0 2 0;
#X connect 21 0 3 0;
#X connect 22 0 23 0;
#X connect 22 0 28 0;
#X connect 23 0 18 1;
#X connect 23 0 19 1;
#X connect 23 0 20 1;
#X connect 23 0 21 1;
#X connect 25 0 4 0;
#X connect 25 0 5 0;
#X connect 26 0 22 0;
#X connect 27 0 29 0;
#X connect 29 0 22 0;
#X connect 30 0 32 0;
#X connect 31 0 33 0;
#X connect 32 0 22 0;
#X connect 33 0 22 0;
#X restore 1130 400 pd reverb;
#N canvas 0 0 1904 968 tape 0;
#X obj 976 242 delwrite~ delay_line 1000;
#X obj 960 490 send~ feedback;
#X obj 976 190 receive~ feedback;
#X obj 949 309 *~;
#X floatatom 900 239 5 0 0 0 - - - 0;
#X obj 901 274 / 100;
#X floatatom 990 357 5 0 0 0 - - - 0;
#X obj 976 279 delread~ delay_line 250;
#X obj 960 402 lop~;
#X obj 1090 410 bp~ 1000 10;
#X floatatom 1103 351 5 0 0 0 - - - 0;
#X obj 560 90 inlet~;
#X obj 840 439 outlet~;
#X obj 790 219 r tapeecho;
#X obj 810 249 bng 15 250 50 0 empty empty empty 17 7 0 10 #fcfcfc #000000 #000000;
#X obj 310 340 bng 15 250 50 0 empty presetreverb1 empty 17 7 0 10 #fcfcfc #000000 #000000;
#X floatatom 310 430 5 0 0 0 - - tapecontrol 0;
#X text 180 370 preset 1 "in space";
#X text 310 300 preset system;
#X msg 310 370 56;
#X obj 310 530 bng 15 250 50 0 empty presetreverb2 empty 17 7 0 10 #fcfcfc #000000 #000000;
#X obj 390 610 bng 15 250 50 0 empty presetreverb3 empty 17 7 0 10 #fcfcfc #000000 #000000;
#X text 200 510 preset 2 echoboy;
#X text 250 620 preset 3 small tunnel;
#X msg 390 640 38;
#X msg 310 560 48;
#X connect 2 0 0 0;
#X connect 3 0 8 0;
#X connect 3 0 9 0;
#X connect 3 0 12 0;
#X connect 4 0 5 0;
#X connect 4 0 16 0;
#X connect 5 0 3 0;
#X connect 6 0 8 1;
#X connect 7 0 3 1;
#X connect 8 0 1 0;
#X connect 10 0 9 1;
#X connect 11 0 0 0;
#X connect 11 0 12 0;
#X connect 13 0 4 0;
#X connect 15 0 19 0;
#X connect 19 0 4 0;
#X connect 20 0 25 0;
#X connect 21 0 24 0;
#X connect 24 0 4 0;
#X connect 25 0 4 0;
#X restore 1130 430 pd tape echo;
#X floatatom 320 160 5 0 0 0 - - - 0;
#X obj 370 230 clone synth.cl 64;
#X msg 390 180 next \$1;
#X obj 330 220 bng 15 250 50 0 empty empty empty 17 7 0 10 #fcfcfc #000000 #000000;
#X obj 170 290 *~;
#X floatatom 310 370 5 0 0 0 - - - 0;
#X obj 310 310 loadbang;
#X obj 170 460 dac~;
#N canvas 16 56 1904 968 reverb 0;
#X obj 370 710 delwrite~ dly1 43;
#X obj 457 670 delwrite~ dly2 59;
#X obj 524 627 delwrite~ dly3 71;
#X obj 589 585 delwrite~ dly4 89;
#X obj 182 192 +~;
#X obj 410 170 +~;
#X obj 420 50 delread~ dly1 43;
#X obj 466 81 delread~ dly2 59;
#X obj 284 364 +~;
#X obj 441 364 +~;
#X obj 327 367 -~;
#X obj 481 363 -~;
#X obj 554 112 delread~ dly1 71;
#X obj 600 143 delread~ dly2 89;
#X obj 282 442 +~;
#X obj 337 446 +~;
#X obj 447 444 -~;
#X obj 507 440 -~;
#X obj 294 511 *~;
#X obj 341 510 *~;
#X obj 434 504 *~;
#X obj 524 493 *~;
#X floatatom 877 196 5 0 0 0 - - - 0;
#X obj 880 240 / 200;
#X obj 60 160 outlet~;
#X obj 100 93 inlet~;
#X obj 935 135 r reverb;
#X text 790 390 Implementation of a schroeder algorithmic reverb. A 4 tap feedback reverb using prime lenghth delays and mixing matrix, f 36;
#X text 583 790 receives the processed and mixed signal from the feedback matrix network and writes it back to the corresponding line, f 46;
#X text 640 50 delay lines with prime numbers to avoid phase reinforcement and metallic resonance, f 27;
#X text 190 50 it's an implementation of a Householder matrix \, which distributes energy evenly and keeps the decay rich and long, f 32;
#X text 457 153 this is part of a feedback matrix using adds \, subs and gains, f 12;
#X text 307 263 matrix mixing section;
#X text 517 253 it mixes outputs of each delay \, feedbacks into other delay lines and thus creates a dense and diffused tail by feeding he output of one delay into others, f 23;
#X text 70 190 sends reverb processed signal back out to main patch, f 10;
#X text 950 250 scaling factor;
#X connect 4 0 8 0;
#X connect 4 0 10 0;
#X connect 4 0 24 0;
#X connect 5 0 8 1;
#X connect 5 0 10 1;
#X connect 5 0 24 0;
#X connect 6 0 4 1;
#X connect 7 0 5 1;
#X connect 8 0 14 0;
#X connect 8 0 16 0;
#X connect 9 0 14 1;
#X connect 9 0 16 1;
#X connect 10 0 15 0;
#X connect 10 0 17 0;
#X connect 11 0 15 1;
#X connect 11 0 17 1;
#X connect 12 0 9 0;
#X connect 12 0 11 0;
#X connect 13 0 9 1;
#X connect 13 0 11 1;
#X connect 14 0 18 0;
#X connect 15 0 19 0;
#X connect 16 0 20 0;
#X connect 17 0 21 0;
#X connect 18 0 0 0;
#X connect 19 0 1 0;
#X connect 20 0 2 0;
#X connect 21 0 3 0;
#X connect 22 0 23 0;
#X connect 23 0 18 1;
#X connect 23 0 19 1;
#X connect 23 0 20 1;
#X connect 23 0 21 1;
#X connect 25 0 4 0;
#X connect 25 0 5 0;
#X connect 26 0 22 0;
#X restore 170 320 pd reverb;
#N canvas 0 0 1904 968 tape 0;
#X obj 1017 -120 delwrite~ delay_line 1000;
#X obj 1001 128 send~ feedback;
#X obj 1017 -172 receive~ feedback;
#X obj 990 -53 *~;
#X floatatom 891 -263 5 0 0 0 - - - 0;
#X obj 892 -228 / 100;
#X floatatom 1401 -28 5 0 0 0 - - - 0;
#X obj 1017 -83 delread~ delay_line 250;
#X obj 1371 17 lop~;
#X obj 1501 25 bp~ 1000 10;
#X floatatom 1514 -34 5 0 0 0 - - - 0;
#X obj 211 -313 inlet~;
#X obj 881 77 outlet~;
#X obj 851 -313 r tapeecho;
#X text 471 -393 single tap delay with controllable feedback that mimicks a classic tape style echo. feedback path is filtered and scaled to simulate how tape repeats degrade over time;
#X text 1191 -123 write input+feedbaxk into 1 second buffer;
#X text 1191 -83 read from buffer after 250ms;
#X text 1021 -53 scale delayed signal by feedback amount;
#X text 981 167 circular audio feedback routing between echo repetitions;
#X text 931 -293 control the amount of feedback;
#X text 1371 57 simulates freq loss on tape with filter before it re enters the delay line;
#X connect 2 0 0 0;
#X connect 3 0 8 0;
#X connect 3 0 9 0;
#X connect 3 0 12 0;
#X connect 4 0 5 0;
#X connect 5 0 3 0;
#X connect 6 0 8 1;
#X connect 7 0 3 1;
#X connect 8 0 1 0;
#X connect 10 0 9 1;
#X connect 11 0 0 0;
#X connect 11 0 12 0;
#X connect 13 0 4 0;
#X restore 170 350 pd tape echo;
#X obj 260 120 r leftsynth;
#X obj 170 390 *~ 0.6;
#X obj 1130 470 *~ 1.3;
#N canvas 1 1 1902 966 composition 0;
#X floatatom 270 525 5 0 0 0 - - - 0;
#X obj 504 -27 tgl 15 0 empty empty empty 17 7 0 10 #fcfcfc #000000 #000000 0 1;
#X obj 466 6 bng 15 250 50 0 empty empty empty 17 7 0 10 #fcfcfc #000000 #000000;
#X obj 260 266 sel 0 1 2 3 4 5 6 7 8 9 10 11 12 13 14;
#X msg 260 310 72;
#X obj 270 550 sel 0 1 2 3 4 5 6 7 8 9 10;
#X obj 270 498 % 12;
#X msg 300 590 60;
#X msg 340 590 64;
#X obj 270 470 counter;
#X obj 290 740 counter;
#X floatatom 290 800 5 0 0 0 - - - 0;
#X obj 290 830 sel 0 1 2 3 4 5 6;
#X obj 290 770 % 8;
#X msg 290 870 60;
#X msg 334 870 64;
#X msg 383 870 65;
#X obj 500 580 sel 0 1 2 3 4 5 6;
#X msg 512 630 64;
#X msg 556 631 65;
#X msg 624 631 64;
#X msg 664 631 65;
#X msg 705 630 67;
#X obj 640 579 sel 0 1 2 3 4 5 6;
#X msg 784 629 64;
#X msg 824 629 65;
#X msg 865 628 67;
#X obj 800 577 sel 0 1 2 3 4 5 6;
#X obj 260 180 counter;
#X obj 260 210 % 16;
#X floatatom 260 240 5 0 0 0 - - - 0;
#X obj 500 468 counter;
#X floatatom 500 524 5 0 0 0 - - - 0;
#X obj 500 496 % 8;
#X obj 640 468 counter;
#X floatatom 640 524 5 0 0 0 - - - 0;
#X obj 640 496 % 8;
#X obj 800 470 counter;
#X floatatom 800 526 5 0 0 0 - - - 0;
#X obj 800 498 % 8;
#X obj 260 150 gate;
#X obj 260 120 tgl 15 0 empty pulse empty 17 7 0 10 #fcfcfc #000000 #000000 0 1;
#X obj 500 440 gate;
#X obj 500 408 tgl 15 0 empty phrase3 empty 17 7 0 10 #fcfcfc #000000 #000000 0 1;
#X obj 640 440 gate;
#X obj 640 410 tgl 15 0 empty phrase4 empty 17 7 0 10 #fcfcfc #000000 #000000 0 1;
#X obj 800 439 gate;
#X obj 800 410 tgl 15 0 empty phrase5 empty 17 7 0 10 #fcfcfc #000000 #000000 0 1;
#X obj 290 710 gate;
#X obj 290 680 tgl 15 0 empty phrase2 empty 17 7 0 10 #fcfcfc #000000 #000000 0 1;
#X obj 270 441 gate;
#X obj 270 410 tgl 15 0 empty phrase1 empty 17 7 0 10 #fcfcfc #000000 #000000 0 1;
#X obj 1160 880 s compo;
#X obj 260 350 s compo;
#X obj 510 -70 inlet;
#X text 1270 -20 tintinnabuli voices down here!;
#X obj 1577 342 counter;
#X floatatom 1577 398 5 0 0 0 - - - 0;
#X text 1585 429 phrase 4;
#X obj 1577 314 gate;
#X obj 1570 280 tgl 15 0 empty diana empty 17 7 0 10 #fcfcfc #000000 #000000 0 1;
#X msg 1640 540 71;
#X msg 1680 540 64;
#X msg 1720 540 67;
#X msg 1750 540 64;
#X msg 1780 540 71;
#X msg 1810 540 60;
#X obj 1577 370 % 32;
#X obj 1660 470 sel 0 1 2 3 4 5 6 7 8 9 10 11 12 13 14 15 16 17 18 19 20 21 22 23 24 25 26 27 28 29 30, f 45;
#X msg 1880 540 71;
#X msg 1920 540 64;
#X msg 1960 540 67;
#X msg 1990 540 64;
#X msg 2020 540 71;
#X msg 2050 540 60;
#X obj 1490 720 counter;
#X floatatom 1415 709 5 0 0 0 - - - 0;
#X obj 1490 690 gate;
#X obj 1490 770 % 32;
#X obj 1555 769 sel 0 1 2 3 4 5 6 7 8 9 10 11 12 13 14 15 16 17 18 19 20 21 22 23 24 25 26 27 28 29 30, f 45;
#X msg 1535 839 62;
#X msg 1575 839 69;
#X msg 1615 839 65;
#X msg 1645 839 69;
#X msg 1675 839 62;
#X msg 1705 839 72;
#X msg 1775 839 62;
#X msg 1815 839 69;
#X msg 1855 839 65;
#X msg 1885 839 69;
#X msg 1915 839 62;
#X msg 1945 839 72;
#X obj 450 -70 loadbang;
#X obj 1830 660 s leftsynth;
#X obj 1355 949 s rightsynth;
#X msg 1600 570 71;
#X msg 1485 839 62;
#X obj 1264 172 sel 0 1 2 3 4 5 6;
#X obj 1396 171 sel 0 1 2 3 4 5 6;
#X obj 1264 61 counter;
#X floatatom 1264 117 5 0 0 0 - - - 0;
#X obj 1264 89 % 8;
#X obj 1396 64 counter;
#X floatatom 1390 130 5 0 0 0 - - - 0;
#X obj 1396 92 % 8;
#X text 1440 20 phrase 5;
#X obj 1264 33 gate;
#X obj 1260 10 tgl 15 0 empty harmony1 empty 17 7 0 10 #fcfcfc #000000 #000000 0 1;
#X obj 1396 33 gate;
#X obj 1390 10 tgl 15 0 empty harmony2 empty 17 7 0 10 #fcfcfc #000000 #000000 0 1;
#X text 260 90 pulse;
#X text 260 390 1st phrase;
#X text 270 650 2nd phrase;
#X text 570 20 bpm;
#X text 480 390 3rd phrase;
#X text 620 380 4th phrase;
#X text 790 380 5th phrase;
#X msg 1248 224 67;
#X msg 1288 224 67;
#X msg 1329 223 72;
#X msg 1380 220 72;
#X msg 1420 223 72;
#X msg 1461 222 76;
#X text 1100 100 tintinnabuli in 1st position superior, f 22;
#X text 1480 60 harmonises with the 4th phrase;
#X text 1514 90 tintinnabuli in 2nd position superior, f 22;
#X text 1070 70 harmonises with the 4th phrase;
#X obj 504 18 metro 100;
#X obj 160 630 bng 15 250 50 0 12 empty empty 17 7 0 10 #fcfcfc #000000 #000000;
#X obj 560 730 bng 15 250 50 0 14 empty empty 17 7 0 10 #fcfcfc #000000 #000000;
#X obj 700 760 bng 15 250 50 0 15 empty empty 17 7 0 10 #fcfcfc #000000 #000000;
#X obj 840 790 bng 15 250 50 0 16 empty empty 17 7 0 10 #fcfcfc #000000 #000000;
#X obj 1260 320 bng 15 250 50 0 17 empty empty 17 7 0 10 #fcfcfc #000000 #000000;
#X obj 1470 460 bng 15 250 50 0 18 empty empty 17 7 0 10 #fcfcfc #000000 #000000;
#X obj 310 960 bng 15 250 50 0 13 empty empty 17 7 0 10 #fcfcfc #000000 #000000;
#X obj 1695 939 bng 15 250 50 0 19 empty empty 17 7 0 10 #fcfcfc #000000 #000000;
#X obj 1750 670 bng 15 250 50 0 20 empty empty 17 7 0 10 #fcfcfc #000000 #000000;
#X obj 170 350 bng 15 250 50 0 11 empty empty 17 7 0 10 #fcfcfc #000000 #000000;
#X text 150 120 1 or 0 gate triggered by toggle, f 16;
#X text 100 370 this is sent to the synth;
#X text 160 420 same logic applies to all phrases, f 14;
#X text 50 240 what we get is a perfectly timed sequence of notes and all there is left to do is place desired notes in rhythm (on one of the 16 pulses), f 20;
#X text 130 500 what changes is the number of pulses and choice of notes, f 19;
#X text 550 -70 the heartbeat of the composition \, every phrase is connected to it;
#X text 130 190 counter to generate pulses (16 in this case, f 19;
#X text 430 -30 on or off;
#X text 1700 740 right phrase from scale illusion!;
#X text 1760 400 rings a bell? (tintinnabuli pun intended) it's the left phrase from diana deutsche's scale illusion!, f 32;
#X connect 0 0 5 0;
#X connect 1 0 127 0;
#X connect 3 0 4 0;
#X connect 3 2 4 0;
#X connect 3 4 4 0;
#X connect 3 6 4 0;
#X connect 3 8 4 0;
#X connect 3 10 4 0;
#X connect 3 12 4 0;
#X connect 3 14 4 0;
#X connect 4 0 53 0;
#X connect 4 0 137 0;
#X connect 5 0 8 0;
#X connect 5 3 7 0;
#X connect 5 4 8 0;
#X connect 5 7 7 0;
#X connect 5 8 8 0;
#X connect 5 11 7 0;
#X connect 6 0 0 0;
#X connect 7 0 52 0;
#X connect 7 0 128 0;
#X connect 8 0 52 0;
#X connect 8 0 128 0;
#X connect 9 0 6 0;
#X connect 10 0 13 0;
#X connect 11 0 12 0;
#X connect 12 0 15 0;
#X connect 12 2 16 0;
#X connect 12 4 15 0;
#X connect 12 7 14 0;
#X connect 13 0 11 0;
#X connect 14 0 52 0;
#X connect 14 0 134 0;
#X connect 15 0 52 0;
#X connect 15 0 134 0;
#X connect 16 0 52 0;
#X connect 16 0 134 0;
#X connect 17 2 18 0;
#X connect 17 4 19 0;
#X connect 17 6 18 0;
#X connect 18 0 52 0;
#X connect 18 0 129 0;
#X connect 19 0 52 0;
#X connect 19 0 129 0;
#X connect 20 0 52 0;
#X connect 20 0 130 0;
#X connect 21 0 52 0;
#X connect 21 0 130 0;
#X connect 22 0 52 0;
#X connect 22 0 130 0;
#X connect 23 2 20 0;
#X connect 23 4 21 0;
#X connect 23 6 22 0;
#X connect 24 0 52 0;
#X connect 24 0 131 0;
#X connect 25 0 52 0;
#X connect 25 0 131 0;
#X connect 26 0 52 0;
#X connect 26 0 131 0;
#X connect 27 0 24 0;
#X connect 27 2 25 0;
#X connect 27 4 26 0;
#X connect 28 0 29 0;
#X connect 29 0 30 0;
#X connect 30 0 3 0;
#X connect 31 0 33 0;
#X connect 32 0 17 0;
#X connect 33 0 32 0;
#X connect 34 0 36 0;
#X connect 35 0 23 0;
#X connect 36 0 35 0;
#X connect 37 0 39 0;
#X connect 38 0 27 0;
#X connect 39 0 38 0;
#X connect 40 0 28 0;
#X connect 41 0 40 0;
#X connect 42 0 31 0;
#X connect 43 0 42 0;
#X connect 44 0 34 0;
#X connect 45 0 44 0;
#X connect 46 0 37 0;
#X connect 47 0 46 0;
#X connect 48 0 10 0;
#X connect 49 0 48 0;
#X connect 50 0 9 0;
#X connect 51 0 50 0;
#X connect 54 0 1 0;
#X connect 56 0 67 0;
#X connect 57 0 68 0;
#X connect 59 0 56 0;
#X connect 60 0 59 0;
#X connect 60 0 77 0;
#X connect 61 0 93 0;
#X connect 61 0 136 0;
#X connect 62 0 93 0;
#X connect 62 0 136 0;
#X connect 63 0 93 0;
#X connect 63 0 136 0;
#X connect 64 0 93 0;
#X connect 64 0 136 0;
#X connect 65 0 93 0;
#X connect 65 0 136 0;
#X connect 66 0 93 0;
#X connect 66 0 136 0;
#X connect 67 0 57 0;
#X connect 68 0 95 0;
#X connect 68 2 61 0;
#X connect 68 4 62 0;
#X connect 68 6 63 0;
#X connect 68 10 64 0;
#X connect 68 12 65 0;
#X connect 68 14 66 0;
#X connect 68 18 69 0;
#X connect 68 20 70 0;
#X connect 68 22 71 0;
#X connect 68 26 72 0;
#X connect 68 28 73 0;
#X connect 68 30 74 0;
#X connect 69 0 93 0;
#X connect 69 0 136 0;
#X connect 70 0 93 0;
#X connect 70 0 136 0;
#X connect 71 0 93 0;
#X connect 71 0 136 0;
#X connect 72 0 93 0;
#X connect 72 0 136 0;
#X connect 73 0 93 0;
#X connect 73 0 136 0;
#X connect 74 0 93 0;
#X connect 74 0 136 0;
#X connect 75 0 78 0;
#X connect 76 0 79 0;
#X connect 77 0 75 0;
#X connect 78 0 76 0;
#X connect 79 0 96 0;
#X connect 79 2 80 0;
#X connect 79 4 81 0;
#X connect 79 6 82 0;
#X connect 79 10 83 0;
#X connect 79 12 84 0;
#X connect 79 14 85 0;
#X connect 79 18 86 0;
#X connect 79 20 87 0;
#X connect 79 22 88 0;
#X connect 79 26 89 0;
#X connect 79 28 90 0;
#X connect 79 30 91 0;
#X connect 80 0 94 0;
#X connect 80 0 135 0;
#X connect 81 0 94 0;
#X connect 81 0 135 0;
#X connect 82 0 94 0;
#X connect 82 0 135 0;
#X connect 83 0 94 0;
#X connect 83 0 135 0;
#X connect 84 0 94 0;
#X connect 84 0 135 0;
#X connect 85 0 94 0;
#X connect 85 0 135 0;
#X connect 86 0 94 0;
#X connect 86 0 135 0;
#X connect 87 0 94 0;
#X connect 87 0 135 0;
#X connect 88 0 94 0;
#X connect 88 0 135 0;
#X connect 89 0 94 0;
#X connect 89 0 135 0;
#X connect 90 0 94 0;
#X connect 90 0 135 0;
#X connect 91 0 94 0;
#X connect 91 0 135 0;
#X connect 92 0 1 0;
#X connect 95 0 93 0;
#X connect 95 0 136 0;
#X connect 96 0 135 0;
#X connect 97 2 117 0;
#X connect 97 4 118 0;
#X connect 97 6 119 0;
#X connect 98 0 120 0;
#X connect 98 2 121 0;
#X connect 98 4 122 0;
#X connect 99 0 101 0;
#X connect 100 0 97 0;
#X connect 101 0 100 0;
#X connect 102 0 104 0;
#X connect 103 0 98 0;
#X connect 104 0 103 0;
#X connect 106 0 99 0;
#X connect 107 0 106 0;
#X connect 108 0 102 0;
#X connect 109 0 108 0;
#X connect 117 0 52 0;
#X connect 117 0 132 0;
#X connect 118 0 52 0;
#X connect 118 0 132 0;
#X connect 119 0 52 0;
#X connect 119 0 132 0;
#X connect 120 0 52 0;
#X connect 120 0 133 0;
#X connect 121 0 52 0;
#X connect 121 0 133 0;
#X connect 122 0 52 0;
#X connect 122 0 133 0;
#X connect 127 0 2 0;
#X connect 127 0 42 1;
#X connect 127 0 44 1;
#X connect 127 0 48 1;
#X connect 127 0 50 1;
#X connect 127 0 46 1;
#X connect 127 0 40 1;
#X connect 127 0 59 1;
#X connect 127 0 77 1;
#X connect 127 0 106 1;
#X connect 127 0 108 1;
#X restore 1498 778 pd composition;
#X obj 870 160 r compo;
#X obj 600 320 loadbang;
#X obj 600 350 metro 200;
#X obj 560 380 tabwrite~ synthwave;
#N canvas 727 218 974 517 filter 0;
#X obj 280 230 lop~;
#X obj 340 200 hsl 128 15 0 5000 0 0 empty addLOP empty -2 -8 0 10 #fcfcfc #000000 #000000 0 1;
#X obj 280 180 inlet~;
#X obj 288 258 outlet~;
#X obj 492 122 loadbang;
#X msg 492 152 1000;
#X obj 492 192 hsl 128 15 1 5000 0 0 Filtros empty empty -2 -8 0 10 #fcfcfc #000000 #000000 0 1;
#X text 358 218 lpf control;
#X text 190 60 lowpass filter for the main synth essentially (m voice \, main composition and bonus musical motifs use this, f 20;
#X connect 0 0 3 0;
#X connect 1 0 0 1;
#X connect 2 0 0 0;
#X connect 4 0 5 0;
#X connect 5 0 6 0;
#X restore 720 490 pd filter;
#N canvas 727 218 974 517 filterl 0;
#X obj 280 230 lop~;
#X obj 340 200 hsl 128 15 0 5000 0 0 empty addLOPL empty -2 -8 0 10 #fcfcfc #000000 #000000 0 1;
#X obj 280 180 inlet~;
#X obj 288 258 outlet~;
#X obj 492 122 loadbang;
#X msg 492 152 1000;
#X obj 492 192 hsl 128 15 1 5000 0 0 FiltrosL empty empty -2 -8 0 10 #fcfcfc #000000 #000000 0 1;
#X text 358 218 lpf control;
#X text 290 60 filter for the left phrase in diana deutsche's psychoacoustic phenomenon, f 20;
#X connect 0 0 3 0;
#X connect 1 0 0 1;
#X connect 2 0 0 0;
#X connect 4 0 5 0;
#X connect 5 0 6 0;
#X restore 170 420 pd filterl;
#N canvas 727 218 974 517 filterr 0;
#X obj 280 230 lop~;
#X obj 340 200 hsl 128 15 0 5000 0 0 empty addLOPR empty -2 -8 0 10 #fcfcfc #000000 #000000 0 1;
#X obj 280 180 inlet~;
#X obj 288 258 outlet~;
#X obj 492 122 loadbang;
#X msg 492 152 1000;
#X obj 492 192 hsl 128 15 1 5000 0 0 FiltrosR empty empty -2 -8 0 10 #fcfcfc #000000 #000000 0 1;
#X text 358 218 lpf control;
#X text 280 70 lowpass filter for the right phrase in diana deutsche's psychoacoustic phenomenon, f 20;
#X connect 0 0 3 0;
#X connect 1 0 0 1;
#X connect 2 0 0 0;
#X connect 4 0 5 0;
#X connect 5 0 6 0;
#X restore 1130 540 pd filterr;
#N canvas 0 0 1904 968 tape 0;
#X obj 886 -237 delwrite~ delay_line 1000;
#X obj 870 11 send~ feedback;
#X obj 886 -289 receive~ feedback;
#X obj 859 -170 *~;
#X floatatom 810 -240 5 0 0 0 - - - 0;
#X obj 811 -205 / 100;
#X floatatom 900 -122 5 0 0 0 - - - 0;
#X obj 886 -200 delread~ delay_line 250;
#X obj 870 -77 lop~;
#X obj 1000 -69 bp~ 1000 10;
#X floatatom 1013 -128 5 0 0 0 - - - 0;
#X obj 590 -320 inlet~;
#X obj 750 -40 outlet~;
#X obj 700 -260 r tapeechoright;
#X connect 2 0 0 0;
#X connect 3 0 8 0;
#X connect 3 0 9 0;
#X connect 3 0 12 0;
#X connect 4 0 5 0;
#X connect 5 0 3 0;
#X connect 6 0 8 1;
#X connect 7 0 3 1;
#X connect 8 0 1 0;
#X connect 10 0 9 1;
#X connect 11 0 0 0;
#X connect 11 0 12 0;
#X connect 13 0 4 0;
#X restore 1150 500 pd tape echor;
#X text 40 80 cloned synth panned to the left for the corresponding phrase in Scale Illusion demo, f 44;
#X text 1170 160 cloned synth panned to the right for the corresponding phrase in Scale Illusion demo, f 44;
#X text 501 581 synth envelope subpatch;
#X text 501 621 synth subpatch;
#X text 1499 884 bonus musical motifs subpatch;
#X text 1458 808 main composition subpatch;
#X text 481 531 synth oscillators subpatch, f 23;
#X text 680 120 main synth (m voice \, composition and bonus musical motifs);
#X text 610 440 tape echo algorithm;
#X text 620 410 reverb algorithm, f 19;
#X text 33 353 tape echo algorithm;
#X text 43 323 reverb algorithm, f 19;
#X text 990 432 tape echo algorithm;
#X text 1000 402 reverb algorithm, f 19;
#X text 620 490 lowpass filter;
#X text 1020 540 lowpass filter;
#X text 60 420 lowpass filter;
#X text 480 320 send information to the waveform display array, f 16;
#X text 1040 220 receives pitches from the right phrase, f 27;
#X text 120 160 receives pitches from the left phrase, f 27;
#X obj 920 560 loadbang;
#X obj 920 590 metro 200;
#X obj 880 620 tabwrite~ diana;
#X msg 1270 420 0.2;
#X msg 312 342 0.2;
#X msg 830 390 0.09;
#X connect 1 0 10 0;
#X connect 2 0 3 0;
#X connect 3 0 10 0;
#X connect 4 0 15 0;
#X connect 4 0 47 0;
#X connect 5 0 4 1;
#X connect 9 0 4 0;
#X connect 10 0 11 0;
#X connect 10 0 9 0;
#X connect 13 0 12 0;
#X connect 15 0 16 0;
#X connect 16 0 48 0;
#X connect 17 0 77 0;
#X connect 19 0 20 0;
#X connect 19 0 22 0;
#X connect 21 0 24 0;
#X connect 22 0 23 0;
#X connect 22 0 21 0;
#X connect 24 0 28 0;
#X connect 25 0 24 1;
#X connect 26 0 75 0;
#X connect 28 0 29 0;
#X connect 29 0 42 0;
#X connect 31 0 34 0;
#X connect 32 0 33 0;
#X connect 32 0 31 0;
#X connect 34 0 38 0;
#X connect 35 0 34 1;
#X connect 36 0 76 0;
#X connect 38 0 39 0;
#X connect 39 0 41 0;
#X connect 40 0 30 0;
#X connect 40 0 32 0;
#X connect 41 0 49 0;
#X connect 42 0 51 0;
#X connect 42 0 74 0;
#X connect 44 0 10 0;
#X connect 45 0 46 0;
#X connect 46 0 47 0;
#X connect 48 0 0 0;
#X connect 48 0 0 1;
#X connect 49 0 37 0;
#X connect 50 0 27 1;
#X connect 51 0 50 0;
#X connect 72 0 73 0;
#X connect 73 0 74 0;
#X connect 75 0 25 0;
#X connect 76 0 35 0;
#X connect 77 0 5 0;
#X restore 290 -56 pd additive;
#N canvas 0 39 1710 972 arvo 0;
#N canvas 0 39 1710 968 1inferior 0;
#X obj 866 93 r m_voice;
#X floatatom 716 233 5 0 0 0 - - - 0;
#X obj 806 103 inlet;
#X obj 686 293 bng 15 250 50 0 empty empty empty 17 7 0 10 #fcfcfc #000000 #000000;
#X obj 726 293 bng 15 250 50 0 empty empty empty 17 7 0 10 #fcfcfc #000000 #000000;
#X obj 756 293 bng 15 250 50 0 empty empty empty 17 7 0 10 #fcfcfc #000000 #000000;
#X obj 796 293 bng 15 250 50 0 empty empty empty 17 7 0 10 #fcfcfc #000000 #000000;
#X obj 826 293 bng 15 250 50 0 empty empty empty 17 7 0 10 #fcfcfc #000000 #000000;
#X obj 856 293 bng 15 250 50 0 empty empty empty 17 7 0 10 #fcfcfc #000000 #000000;
#X obj 886 293 bng 15 250 50 0 empty empty empty 17 7 0 10 #fcfcfc #000000 #000000;
#X obj 916 293 bng 15 250 50 0 empty empty empty 17 7 0 10 #fcfcfc #000000 #000000;
#X msg 716 323 60;
#X msg 756 323 64;
#X msg 796 323 64;
#X msg 826 323 67;
#X msg 856 323 67;
#X msg 886 323 67;
#X msg 676 323 55;
#X msg 886 403 next \$1;
#X obj 818 385 bng 17 250 50 0 empty empty empty 17 7 0 10 #fcfcfc #000000 #000000;
#X obj 876 453 clone synth.cl 64;
#X text 924 101 1st position inferior;
#X msg 916 323 72;
#X msg 956 323 72;
#X msg 996 323 76;
#X msg 1036 323 76;
#X obj 946 293 bng 15 250 50 0 empty empty empty 17 7 0 10 #fcfcfc #000000 #000000;
#X obj 976 293 bng 15 250 50 0 empty empty empty 17 7 0 10 #fcfcfc #000000 #000000;
#X obj 1006 293 bng 15 250 50 0 empty empty empty 17 7 0 10 #fcfcfc #000000 #000000;
#X obj 1036 293 bng 15 250 50 0 empty empty empty 17 7 0 10 #fcfcfc #000000 #000000;
#X obj 1066 293 bng 15 250 50 0 empty empty empty 17 7 0 10 #fcfcfc #000000 #000000;
#X msg 1106 323 79;
#X obj 1106 293 bng 15 250 50 0 empty empty empty 17 7 0 10 #fcfcfc #000000 #000000;
#X msg 1136 323 79;
#X obj 806 223 sel 60 62 64 65 67 69 71 72 74 76 77 79 81 83 84, f 31;
#X msg 1076 323 76;
#X obj 1148 295 bng 15 250 50 0 empty empty empty 17 7 0 10 #fcfcfc #000000 #000000;
#X msg 1166 323 79;
#X obj 716 73 r 1inferior;
#X obj 746 103 tgl 27 0 empty empty empty 17 7 0 10 #fcfcfc #000000 #000000 0 1;
#X obj 996 493 dac~;
#X floatatom 916 173 5 0 0 0 - - - 0;
#X obj 826 163 *;
#X floatatom 706 153 5 0 0 0 - - - 0;
#X floatatom 826 188 5 0 0 0 - - - 0;
#X obj 876 493 *~ 0.5;
#X connect 0 0 1 0;
#X connect 0 0 41 0;
#X connect 0 0 42 0;
#X connect 2 0 1 0;
#X connect 3 0 17 0;
#X connect 4 0 11 0;
#X connect 5 0 12 0;
#X connect 6 0 13 0;
#X connect 7 0 14 0;
#X connect 8 0 15 0;
#X connect 9 0 16 0;
#X connect 10 0 22 0;
#X connect 11 0 18 0;
#X connect 12 0 18 0;
#X connect 13 0 18 0;
#X connect 14 0 18 0;
#X connect 15 0 18 0;
#X connect 16 0 18 0;
#X connect 17 0 18 0;
#X connect 18 0 19 0;
#X connect 18 0 20 0;
#X connect 20 0 45 0;
#X connect 22 0 18 0;
#X connect 23 0 18 0;
#X connect 24 0 18 0;
#X connect 25 0 18 0;
#X connect 26 0 23 0;
#X connect 27 0 24 0;
#X connect 28 0 25 0;
#X connect 29 0 35 0;
#X connect 30 0 31 0;
#X connect 31 0 18 0;
#X connect 32 0 33 0;
#X connect 33 0 18 0;
#X connect 34 0 3 0;
#X connect 34 1 4 0;
#X connect 34 2 5 0;
#X connect 34 3 6 0;
#X connect 34 4 7 0;
#X connect 34 5 8 0;
#X connect 34 6 9 0;
#X connect 34 7 10 0;
#X connect 34 8 26 0;
#X connect 34 9 27 0;
#X connect 34 10 28 0;
#X connect 34 11 29 0;
#X connect 34 12 30 0;
#X connect 34 13 32 0;
#X connect 34 14 36 0;
#X connect 35 0 18 0;
#X connect 36 0 37 0;
#X connect 37 0 18 0;
#X connect 38 0 39 0;
#X connect 39 0 42 1;
#X connect 39 0 43 0;
#X connect 42 0 34 0;
#X connect 42 0 44 0;
#X connect 45 0 40 0;
#X connect 45 0 40 1;
#X restore 400 100 pd 1inferior;
#N canvas 0 39 1710 968 1superior 0;
#X obj 860 170 r m_voice;
#X floatatom 710 310 5 0 0 0 - - - 0;
#X obj 800 180 inlet;
#X obj 680 370 bng 15 250 50 0 empty empty empty 17 7 0 10 #fcfcfc #000000 #000000;
#X obj 720 370 bng 15 250 50 0 empty empty empty 17 7 0 10 #fcfcfc #000000 #000000;
#X obj 750 370 bng 15 250 50 0 empty empty empty 17 7 0 10 #fcfcfc #000000 #000000;
#X obj 790 370 bng 15 250 50 0 empty empty empty 17 7 0 10 #fcfcfc #000000 #000000;
#X obj 820 370 bng 15 250 50 0 empty empty empty 17 7 0 10 #fcfcfc #000000 #000000;
#X obj 850 370 bng 15 250 50 0 empty empty empty 17 7 0 10 #fcfcfc #000000 #000000;
#X obj 880 370 bng 15 250 50 0 empty empty empty 17 7 0 10 #fcfcfc #000000 #000000;
#X obj 910 370 bng 15 250 50 0 empty empty empty 17 7 0 10 #fcfcfc #000000 #000000;
#X msg 880 480 next \$1;
#X obj 812 462 bng 17 250 50 0 empty empty empty 17 7 0 10 #fcfcfc #000000 #000000;
#X obj 870 530 clone synth.cl 64;
#X obj 940 370 bng 15 250 50 0 empty empty empty 17 7 0 10 #fcfcfc #000000 #000000;
#X obj 970 370 bng 15 250 50 0 empty empty empty 17 7 0 10 #fcfcfc #000000 #000000;
#X obj 1000 370 bng 15 250 50 0 empty empty empty 17 7 0 10 #fcfcfc #000000 #000000;
#X obj 1030 370 bng 15 250 50 0 empty empty empty 17 7 0 10 #fcfcfc #000000 #000000;
#X obj 1060 370 bng 15 250 50 0 empty empty empty 17 7 0 10 #fcfcfc #000000 #000000;
#X obj 1100 370 bng 15 250 50 0 empty empty empty 17 7 0 10 #fcfcfc #000000 #000000;
#X obj 800 300 sel 60 62 64 65 67 69 71 72 74 76 77 79 81 83 84, f 31;
#X obj 1142 372 bng 15 250 50 0 empty empty empty 17 7 0 10 #fcfcfc #000000 #000000;
#X obj 740 180 tgl 27 0 empty empty empty 17 7 0 10 #fcfcfc #000000 #000000 0 1;
#X obj 990 570 dac~;
#X floatatom 910 250 5 0 0 0 - - - 0;
#X obj 820 240 *;
#X floatatom 700 230 5 0 0 0 - - - 0;
#X floatatom 820 265 5 0 0 0 - - - 0;
#X text 918 178 1st position superior;
#X obj 710 150 r 1superior;
#X msg 1160 400 88;
#X msg 1130 400 84;
#X msg 670 400 64;
#X msg 710 400 64;
#X msg 750 400 67;
#X msg 790 400 67;
#X msg 820 400 72;
#X msg 850 400 72;
#X msg 880 400 72;
#X msg 910 400 76;
#X msg 950 400 76;
#X msg 990 400 79;
#X msg 1030 400 79;
#X msg 1070 400 84;
#X msg 1100 400 84;
#X obj 870 570 *~ 0.6;
#X connect 0 0 1 0;
#X connect 0 0 24 0;
#X connect 0 0 25 0;
#X connect 2 0 1 0;
#X connect 3 0 32 0;
#X connect 4 0 33 0;
#X connect 5 0 34 0;
#X connect 6 0 35 0;
#X connect 7 0 36 0;
#X connect 8 0 37 0;
#X connect 9 0 38 0;
#X connect 10 0 39 0;
#X connect 11 0 12 0;
#X connect 11 0 13 0;
#X connect 13 0 45 0;
#X connect 14 0 40 0;
#X connect 15 0 41 0;
#X connect 16 0 42 0;
#X connect 17 0 43 0;
#X connect 18 0 44 0;
#X connect 19 0 31 0;
#X connect 20 0 3 0;
#X connect 20 1 4 0;
#X connect 20 2 5 0;
#X connect 20 3 6 0;
#X connect 20 4 7 0;
#X connect 20 5 8 0;
#X connect 20 6 9 0;
#X connect 20 7 10 0;
#X connect 20 8 14 0;
#X connect 20 9 15 0;
#X connect 20 10 16 0;
#X connect 20 11 17 0;
#X connect 20 12 18 0;
#X connect 20 13 19 0;
#X connect 20 14 21 0;
#X connect 21 0 30 0;
#X connect 22 0 25 1;
#X connect 22 0 26 0;
#X connect 25 0 20 0;
#X connect 25 0 27 0;
#X connect 29 0 22 0;
#X connect 30 0 11 0;
#X connect 31 0 11 0;
#X connect 32 0 11 0;
#X connect 33 0 11 0;
#X connect 34 0 11 0;
#X connect 35 0 11 0;
#X connect 36 0 11 0;
#X connect 37 0 11 0;
#X connect 38 0 11 0;
#X connect 39 0 11 0;
#X connect 40 0 11 0;
#X connect 41 0 11 0;
#X connect 42 0 11 0;
#X connect 43 0 11 0;
#X connect 44 0 11 0;
#X connect 45 0 23 0;
#X connect 45 0 23 1;
#X restore 560 100 pd 1superior;
#N canvas 0 39 1710 968 2superior 0;
#X obj 870 320 r m_voice;
#X floatatom 720 460 5 0 0 0 - - - 0;
#X obj 810 330 inlet;
#X obj 690 520 bng 15 250 50 0 empty empty empty 17 7 0 10 #fcfcfc #000000 #000000;
#X obj 730 520 bng 15 250 50 0 empty empty empty 17 7 0 10 #fcfcfc #000000 #000000;
#X obj 760 520 bng 15 250 50 0 empty empty empty 17 7 0 10 #fcfcfc #000000 #000000;
#X obj 800 520 bng 15 250 50 0 empty empty empty 17 7 0 10 #fcfcfc #000000 #000000;
#X obj 830 520 bng 15 250 50 0 empty empty empty 17 7 0 10 #fcfcfc #000000 #000000;
#X obj 860 520 bng 15 250 50 0 empty empty empty 17 7 0 10 #fcfcfc #000000 #000000;
#X obj 890 520 bng 15 250 50 0 empty empty empty 17 7 0 10 #fcfcfc #000000 #000000;
#X obj 920 520 bng 15 250 50 0 empty empty empty 17 7 0 10 #fcfcfc #000000 #000000;
#X msg 890 630 next \$1;
#X obj 822 612 bng 17 250 50 0 empty empty empty 17 7 0 10 #fcfcfc #000000 #000000;
#X obj 880 680 clone synth.cl 64;
#X obj 950 520 bng 15 250 50 0 empty empty empty 17 7 0 10 #fcfcfc #000000 #000000;
#X obj 980 520 bng 15 250 50 0 empty empty empty 17 7 0 10 #fcfcfc #000000 #000000;
#X obj 1010 520 bng 15 250 50 0 empty empty empty 17 7 0 10 #fcfcfc #000000 #000000;
#X obj 1040 520 bng 15 250 50 0 empty empty empty 17 7 0 10 #fcfcfc #000000 #000000;
#X obj 1070 520 bng 15 250 50 0 empty empty empty 17 7 0 10 #fcfcfc #000000 #000000;
#X obj 1110 520 bng 15 250 50 0 empty empty empty 17 7 0 10 #fcfcfc #000000 #000000;
#X obj 810 450 sel 60 62 64 65 67 69 71 72 74 76 77 79 81 83 84, f 31;
#X obj 1152 522 bng 15 250 50 0 empty empty empty 17 7 0 10 #fcfcfc #000000 #000000;
#X obj 750 330 tgl 27 0 empty empty empty 17 7 0 10 #fcfcfc #000000 #000000 0 1;
#X obj 1000 720 dac~;
#X floatatom 920 400 5 0 0 0 - - - 0;
#X obj 830 390 *;
#X floatatom 710 380 5 0 0 0 - - - 0;
#X floatatom 830 415 5 0 0 0 - - - 0;
#X obj 720 300 r 2superior;
#X msg 680 550 67;
#X msg 720 550 67;
#X msg 760 550 72;
#X msg 800 550 72;
#X msg 830 550 76;
#X msg 860 550 76;
#X msg 890 550 76;
#X msg 920 550 79;
#X msg 960 550 79;
#X msg 1040 550 84;
#X msg 1110 550 88;
#X msg 1140 550 88;
#X msg 1000 550 84;
#X msg 1080 550 88;
#X msg 1170 550 91;
#X text 950 340 2nd position superior;
#X obj 880 720 *~ 0.5;
#X connect 0 0 1 0;
#X connect 0 0 24 0;
#X connect 0 0 25 0;
#X connect 2 0 1 0;
#X connect 3 0 29 0;
#X connect 4 0 30 0;
#X connect 5 0 31 0;
#X connect 6 0 32 0;
#X connect 7 0 33 0;
#X connect 8 0 34 0;
#X connect 9 0 35 0;
#X connect 10 0 36 0;
#X connect 11 0 12 0;
#X connect 11 0 13 0;
#X connect 13 0 45 0;
#X connect 14 0 37 0;
#X connect 15 0 41 0;
#X connect 16 0 38 0;
#X connect 17 0 42 0;
#X connect 18 0 39 0;
#X connect 19 0 40 0;
#X connect 20 0 3 0;
#X connect 20 1 4 0;
#X connect 20 2 5 0;
#X connect 20 3 6 0;
#X connect 20 4 7 0;
#X connect 20 5 8 0;
#X connect 20 6 9 0;
#X connect 20 7 10 0;
#X connect 20 8 14 0;
#X connect 20 9 15 0;
#X connect 20 10 16 0;
#X connect 20 11 17 0;
#X connect 20 12 18 0;
#X connect 20 13 19 0;
#X connect 20 14 21 0;
#X connect 21 0 43 0;
#X connect 22 0 25 1;
#X connect 22 0 26 0;
#X connect 25 0 20 0;
#X connect 25 0 27 0;
#X connect 28 0 22 0;
#X connect 29 0 11 0;
#X connect 30 0 11 0;
#X connect 31 0 11 0;
#X connect 32 0 11 0;
#X connect 33 0 11 0;
#X connect 34 0 11 0;
#X connect 35 0 11 0;
#X connect 36 0 11 0;
#X connect 37 0 11 0;
#X connect 38 0 11 0;
#X connect 39 0 11 0;
#X connect 40 0 11 0;
#X connect 41 0 11 0;
#X connect 42 0 11 0;
#X connect 43 0 11 0;
#X connect 45 0 23 0;
#X connect 45 0 23 1;
#X restore 680 100 pd 2superior;
#N canvas 0 39 1710 972 2inferior 0;
#X obj 510 30 r m_voice;
#X floatatom 300 210 5 0 0 0 - - - 0;
#X obj 210 160 inlet;
#X obj 300 340 bng 15 250 50 0 empty empty empty 17 7 0 10 #fcfcfc #000000 #000000;
#X obj 340 340 bng 15 250 50 0 empty empty empty 17 7 0 10 #fcfcfc #000000 #000000;
#X obj 370 340 bng 15 250 50 0 empty empty empty 17 7 0 10 #fcfcfc #000000 #000000;
#X obj 410 340 bng 15 250 50 0 empty empty empty 17 7 0 10 #fcfcfc #000000 #000000;
#X obj 440 340 bng 15 250 50 0 empty empty empty 17 7 0 10 #fcfcfc #000000 #000000;
#X obj 470 340 bng 15 250 50 0 empty empty empty 17 7 0 10 #fcfcfc #000000 #000000;
#X obj 500 340 bng 15 250 50 0 empty empty empty 17 7 0 10 #fcfcfc #000000 #000000;
#X obj 530 340 bng 15 250 50 0 empty empty empty 17 7 0 10 #fcfcfc #000000 #000000;
#X msg 790 490 next \$1;
#X obj 750 510 bng 17 250 50 0 empty empty empty 17 7 0 10 #fcfcfc #000000 #000000;
#X obj 783 524 clone synth.cl 64;
#X obj 560 340 bng 15 250 50 0 empty empty empty 17 7 0 10 #fcfcfc #000000 #000000;
#X obj 590 340 bng 15 250 50 0 empty empty empty 17 7 0 10 #fcfcfc #000000 #000000;
#X obj 620 340 bng 15 250 50 0 empty empty empty 17 7 0 10 #fcfcfc #000000 #000000;
#X obj 650 340 bng 15 250 50 0 empty empty empty 17 7 0 10 #fcfcfc #000000 #000000;
#X obj 680 340 bng 15 250 50 0 empty empty empty 17 7 0 10 #fcfcfc #000000 #000000;
#X obj 720 340 bng 15 250 50 0 empty empty empty 17 7 0 10 #fcfcfc #000000 #000000;
#X obj 420 270 sel 60 62 64 65 67 69 71 72 74 76 77 79 81 83 84, f 31;
#X obj 762 342 bng 15 250 50 0 empty empty empty 17 7 0 10 #fcfcfc #000000 #000000;
#X obj 150 160 tgl 27 0 empty empty empty 17 7 0 10 #fcfcfc #000000 #000000 0 1;
#X obj 636 548 dac~;
#X floatatom 530 220 5 0 0 0 - - - 0;
#X obj 230 220 *;
#X floatatom 110 210 5 0 0 0 - - - 0;
#X floatatom 230 245 5 0 0 0 - - - 0;
#X obj 120 130 r 2inferior;
#X text 240 60 2nd position inferior;
#X msg 290 370 52;
#X msg 330 370 55;
#X msg 370 370 55;
#X msg 410 370 60;
#X msg 440 370 60;
#X msg 470 370 64;
#X msg 500 370 64;
#X msg 530 370 64;
#X msg 570 370 67;
#X msg 610 370 67;
#X msg 650 370 72;
#X msg 690 370 72;
#X msg 720 370 76;
#X msg 750 370 76;
#X msg 780 370 76;
#X obj 570 150 spigot;
#X msg 620 130 0, f 4;
#X obj 757 569 *~ 0.5;
#X text 586 37 receives user melody in real time;
#X text 548 247 possible pitches in c major scale;
#X text 297 453 tintinnabuli pitches in 2nd position inferior corresponding to each note in cmajor;
#X connect 0 0 1 0;
#X connect 0 0 24 0;
#X connect 0 0 25 0;
#X connect 0 0 45 0;
#X connect 2 0 1 0;
#X connect 3 0 30 0;
#X connect 4 0 31 0;
#X connect 5 0 32 0;
#X connect 6 0 33 0;
#X connect 7 0 34 0;
#X connect 8 0 35 0;
#X connect 9 0 36 0;
#X connect 10 0 37 0;
#X connect 11 0 12 0;
#X connect 11 0 13 0;
#X connect 13 0 47 0;
#X connect 14 0 38 0;
#X connect 15 0 39 0;
#X connect 16 0 40 0;
#X connect 17 0 41 0;
#X connect 18 0 42 0;
#X connect 19 0 43 0;
#X connect 20 0 3 0;
#X connect 20 1 4 0;
#X connect 20 2 5 0;
#X connect 20 3 6 0;
#X connect 20 4 7 0;
#X connect 20 5 8 0;
#X connect 20 6 9 0;
#X connect 20 7 10 0;
#X connect 20 8 14 0;
#X connect 20 9 15 0;
#X connect 20 10 16 0;
#X connect 20 11 17 0;
#X connect 20 12 18 0;
#X connect 20 13 19 0;
#X connect 20 14 21 0;
#X connect 21 0 44 0;
#X connect 22 0 25 1;
#X connect 22 0 26 0;
#X connect 25 0 20 0;
#X connect 25 0 27 0;
#X connect 28 0 22 0;
#X connect 30 0 11 0;
#X connect 31 0 11 0;
#X connect 32 0 11 0;
#X connect 33 0 11 0;
#X connect 34 0 11 0;
#X connect 35 0 11 0;
#X connect 36 0 11 0;
#X connect 37 0 11 0;
#X connect 38 0 11 0;
#X connect 39 0 11 0;
#X connect 40 0 11 0;
#X connect 41 0 11 0;
#X connect 42 0 11 0;
#X connect 43 0 11 0;
#X connect 44 0 11 0;
#X connect 45 0 20 0;
#X connect 46 0 45 1;
#X connect 47 0 23 0;
#X connect 47 0 23 1;
#X restore 280 100 pd 2inferior;
#X restore 290 134 pd arvo;
#N canvas 727 334 450 300 t 0;
#X obj 113 52 bng 26 250 50 0 playleft empty start -5 30 0 12 #bb4444 #000000 #bb4444;
#X obj 293 52 bng 25 250 50 0 stopright empty stop -3 30 0 12 #4444bb #000000 #4444bb;
#X obj 173 52 bng 26 250 50 0 stopleft empty stop -3 30 0 12 #4444bb #000000 #4444bb;
#X obj 233 52 bng 25 250 50 0 playright empty start -5 30 0 12 #bb4444 #000000 #bb4444;
#X obj 170 110 bng 26 250 50 0 empty empty combine -10 -10 0 11 #ff8000 #000000 #ff8000;
#X obj 230 110 bng 26 250 50 0 empty empty stop -10 -10 0 11 #0080ff #000000 #0080ff;
#X connect 4 0 0 0;
#X connect 4 0 3 0;
#X connect 5 0 1 0;
#X connect 5 0 2 0;
#X coords 0 -1 1 1 253 89 1 70 47;
#X restore 1030 -510 pd t;
#X text 110 24 For the sake of simplicity \, we'll keep it in the key of C. Cmajor in this keyboard is: a \, s \, d \, f \, g \, h \, J \, A \, S \, D \, F \, G \, H \, J \, K., f 29;
#X text 690 93 1st position superior, f 12;
#X text 840 93 2nd position superior, f 12;
#X text 420 92 2nd position inferior, f 12;
#X text 560 92 1st position inferior, f 12;
#X obj 881 -408 vsl 15 128 10 5000 1 0 addLOP Filtros LOWPASS\ FILTER -20 -10 0 10 #e3c6ff #000000 #000000 0 1;
#X obj 1110 -331 vsl 20 58 1.27 127 1 0 addLOPL FiltrosL left\ volume -20 -9 0 10 #ffe3c6 #000000 #000000 0 1;
#X obj 1230 -331 vsl 20 58 1.27 127 1 0 addLOPR FiltrosR right\ volume -20 -9 0 10 #ffe3c6 #000000 #000000 0 1;
#X text 1050 -236 bonus: have a play combining more musical motifs :), f 47;
#X text 130 -142 In this section you can play around with effects that compliment the synth sound!, f 24;
#X text 310 -428 Terry Riley's 'In C', f 9;
#X text 480 -8 Feel free to stop the demo and play your own lines :);
#X obj 424 -270 tgl 20 0 phrase5 empty phrase5 -8 -10 0 10 #c6ffc7 #000000 #000000 0 1;
#X obj 643 -427 tgl 30 0 diana empty scale\ illusion -8 -10 0 10 #c6ffc7 #000000 #000000 0 1;
#X obj 648 -338 tgl 20 0 harmony1 empty harmony4 -8 -10 0 10 #c6ffc7 #000000 #000000 0 1;
#X obj 648 -269 tgl 20 0 harmony2 empty harmony5 -8 -10 0 10 #c6ffc7 #000000 #000000 0 1;
#X text 530 -326 Harmonise it with Tintinnabuli, f 12;
#X text 1380 -505 This patch demonstrates the Scale Illusion. Press start to hear each phrase alone. Press combine to hear the illusion. Use stereo headphones. You may hear a scale rising in one ear and falling in the other \, though these patterns are not physically present., f 44;
#X text 1380 -341 The illusion occurs when tones from two scales are split between the ears. The listener perceives a smooth major scale rising in one ear and falling in the other \, though neither sequence is actually played that way., f 46;
#X text 1370 -197 These motifs are built by using array of pitches Bass motif does "four on the floor" two notes play the root and third multiple notes explores various arrays of motifs sequentially and in a randomised manner, f 48;
#X obj 804 -131 bng 21 250 50 0 presetreverb1 empty in\ space -10 -10 0 10 #c6ffc7 #000000 #000000;
#X text 1440 124 Play the synth using your computer keyboard, f 23;
#X text 1040 124 Caps Lock to switch octave, f 11;
#X obj 854 -106 bng 21 250 50 0 presetreverb2 empty echoboy -10 -10 0 10 #c6ffc7 #000000 #000000;
#X obj 904 -76 bng 21 250 50 0 presetreverb3 empty small\ tunnel -10 -10 0 10 #c6ffc7 #000000 #000000;
#X text 350 -126 EFFECTS, f 8;
#X text 850 -176 presets;
#X text 1120 -536 SCALE ILLUSION;
#X text 289 -364 (start with);
#X text 119 -389 tip: don't stack too many phrases together as the individual lines will lose its diaphaneity, f 26;
#X text 150 4 KEYBOARD USE;
#X text 340 -236 Terry Rileys In C is a seminal minimalist piece made of short repeating patterns. Each performer chooses when to move to the next one \, creating shifting textures. It shows how simple musical ideas can build complex and beautiful results through repetition and layering, f 101;
#X obj 1000 -76 cnv 19 687 150 empty empty empty 20 12 0 12 #dfdfdf #404040 0;
#X obj 1168 -48 cnv 19 310 90 empty empty empty 20 12 0 12 #000000 #404040 0;
#X obj 1170 -46 cnv 19 305 85 empty empty empty 20 12 0 12 #ffffff #404040 0;
#N canvas 0 0 450 300 (subpatch) 0;
#X array synthwave 100 float 7;
#A 0 0.000598309 0.000582303 0.000566299 0.000550298 0.000534299 0.000518303 0.000502307 0.000486308 0.000470311 0.000454317 0.000438325 0.000422335 0.000406347 0.000390362 0.000374379 0.000358398 0.00034242 0.000326441 0.000310463 0.000294486 0.000278513 0.000262541 0.000246572 0.000230605 0.00021464 0.000198678 0.000182718 0.00016676 0.000150802 0.000134847 0.000118894 0.000102943 8.69945e-05 7.10483e-05 5.51044e-05 3.91629e-05 2.32236e-05 7.2867e-06 -8.64791e-06 -2.45802e-05 -4.05102e-05 -5.64379e-05 -7.23633e-05 -8.82863e-05 -0.000104207 -0.000120126 -0.000136042 -0.000151955 -0.000167867 -0.000183774 -0.000199678 -0.00021558 -0.00023148 -0.000247378 -0.000263273 -0.000279166 -0.000295057 -0.000310945 -0.000326831 -0.000342713 -0.000358589 -0.000374463 -0.000390335 -0.000406205 -0.00042207 -0.000437935 -0.000453798 -0.000469658 -0.000485516 -0.000501372 -0.000517219 -0.000533063 -0.000548904 -0.000564744 -0.000580581 -0.000596416 -0.000612248 -0.000628078 -0.000643906 -0.000659732 -0.000675551 -0.000691362 -0.000707171 -0.000722978 -0.000738783 -0.000754585 -0.000770385 -0.000786182 -0.000801978 -0.000817771 -0.000833561 -0.000849339 -0.000865114 -0.000880885 -0.000896655 -0.000912422 -0.000928187 -0.00094395 -0.00095971 -0.000975468;
#X coords 0 1 100 -1 294 77 1;
#X restore 1180 -46 graph;
#X text 1020 -646 Press PLAY to trigger GEM visuals. The composition is interactive and you can find it in the top left pink panel where you'll interact with multiple musical motifs that react visually You are a composer too!, f 49;
#X text 1460 -536 by Diana Deutsch;
#X text 450 -580 Welcome to the Tintinnabulist: a minimalist synth and illusion demo. Explore harmony and perception in real time.;
#X text 530 -436 Add Diana Deutsch's Scale Illusion, f 10;
#X text 670 -178 TAPE ECHO;
#X text 470 -178 REVERB;
#X text 1070 -10 now playing...;
#X coords 0 9680 1 9670 0 0 0;
