#N canvas 69 302 561 429 10;
#X obj 141 305 *~;
#X obj 251 185 line~;
#X obj 230 80 bng 19 250 50 0 empty empty empty 17 7 0 10 #fcfcfc #000000
#000000;
#X obj 281 145 pack 0 500;
#X floatatom 381 115 5 0 0 0 - - -, f 5;
#X obj 251 225 *~;
#X obj 251 255 *~;
#X obj 281 95 del 50;
#X msg 231 145 1 3;
#X obj 130 90 mtof;
#X obj 141 135 osc~;
#X obj 131 15 inlet;
#X obj 141 365 outlet~;
#X obj 341 45 loadbang;
#X msg 341 75 2000;
#X obj 730 390 bng 15 250 50 0 empty empty empty 17 7 0 10 #fcfcfc
#000000 #000000;
#X obj 440 70 r decay;
#X connect 0 0 12 0;
#X connect 1 0 5 0;
#X connect 1 0 5 1;
#X connect 2 0 8 0;
#X connect 2 0 7 0;
#X connect 3 0 1 0;
#X connect 4 0 3 1;
#X connect 5 0 6 0;
#X connect 5 0 6 1;
#X connect 6 0 0 1;
#X connect 7 0 3 0;
#X connect 8 0 1 0;
#X connect 9 0 10 0;
#X connect 10 0 0 0;
#X connect 11 0 2 0;
#X connect 11 0 9 0;
#X connect 13 0 14 0;
#X connect 14 0 4 0;
#X connect 16 0 4 0;
